<svg width="22" height="21" viewBox="0 0 22 21" fill="none" xmlns="http://www.w3.org/2000/svg">
<path fill-rule="evenodd" clip-rule="evenodd" d="M14.7711 5.7384C15.6734 5.7384 16.4047 5.01434 16.4047 4.12117C16.4047 3.228 15.6734 2.50394 14.7711 2.50394C13.8688 2.50394 13.1374 3.228 13.1374 4.12117C13.1374 5.01434 13.8688 5.7384 14.7711 5.7384ZM17.9355 3.31256C17.5727 1.91751 16.2935 0.886719 14.7711 0.886719C13.2487 0.886719 11.9694 1.91751 11.6067 3.31256H0.884947C0.433827 3.31256 0.0681152 3.67459 0.0681152 4.12117C0.0681152 4.56775 0.433827 4.92978 0.884947 4.92978H11.6067C11.9694 6.3248 13.2487 7.35562 14.7711 7.35562C16.2935 7.35562 17.5727 6.3248 17.9355 4.92978H20.4889C20.94 4.92978 21.3057 4.56775 21.3057 4.12117C21.3057 3.67459 20.94 3.31256 20.4889 3.31256H17.9355ZM14.7711 18.6762C15.6734 18.6762 16.4047 17.9522 16.4047 17.059C16.4047 16.1658 15.6734 15.4417 14.7711 15.4417C13.8688 15.4417 13.1374 16.1658 13.1374 17.059C13.1374 17.9522 13.8688 18.6762 14.7711 18.6762ZM11.6067 17.8676C11.9694 19.2626 13.2487 20.2934 14.7711 20.2934C16.2935 20.2934 17.5727 19.2626 17.9355 17.8676H20.4889C20.94 17.8676 21.3057 17.5056 21.3057 17.059C21.3057 16.6124 20.94 16.2504 20.4889 16.2504H17.9355C17.5727 14.8553 16.2935 13.8245 14.7711 13.8245C13.2487 13.8245 11.9694 14.8553 11.6067 16.2504H0.884947C0.433827 16.2504 0.0681152 16.6124 0.0681152 17.059C0.0681152 17.5056 0.433827 17.8676 0.884947 17.8676H11.6067ZM8.23643 10.5901C8.23643 11.4833 7.50504 12.2073 6.60277 12.2073C5.70052 12.2073 4.9691 11.4833 4.9691 10.5901C4.9691 9.69688 5.70052 8.97285 6.60277 8.97285C7.50504 8.97285 8.23643 9.69688 8.23643 10.5901ZM9.76717 9.78146C9.40442 8.38644 8.12518 7.35562 6.60277 7.35562C5.08032 7.35562 3.80108 8.38644 3.43838 9.78146H0.884947C0.433827 9.78146 0.0681152 10.1435 0.0681152 10.5901C0.0681152 11.0367 0.433827 11.3987 0.884947 11.3987H3.43838C3.80108 12.7937 5.08032 13.8245 6.60277 13.8245C8.12518 13.8245 9.40442 12.7937 9.76717 11.3987H20.4889C20.94 11.3987 21.3057 11.0367 21.3057 10.5901C21.3057 10.1435 20.94 9.78146 20.4889 9.78146H9.76717Z" fill="white"/>
</svg>
