<svg width="46" height="54" viewBox="0 0 46 54" fill="none" xmlns="http://www.w3.org/2000/svg">
<path d="M30.5 0.762512H15.5V5.76251H30.5V0.762512ZM20.5 33.2625H25.5V18.2625H20.5V33.2625ZM40.575 16.7125L44.125 13.1625C43.05 11.8875 41.875 10.6875 40.6 9.63751L37.05 13.1875C33.0683 9.98333 28.1108 8.23674 23 8.23751C17.0326 8.23751 11.3097 10.608 7.0901 14.8276C2.87053 19.0472 0.5 24.7701 0.5 30.7375C0.5 43.1625 10.55 53.2375 23 53.2375C35.45 53.2375 45.5 43.1625 45.5 30.7375C45.5 25.4625 43.65 20.5875 40.575 16.7125ZM23 48.2625C13.325 48.2625 5.5 40.4375 5.5 30.7625C5.5 21.0875 13.325 13.2625 23 13.2625C32.675 13.2625 40.5 21.0875 40.5 30.7625C40.5 40.4375 32.675 48.2625 23 48.2625Z" fill="#ED1D25"/>
</svg>
