<svg width="39" height="36" viewBox="0 0 39 36" fill="none" xmlns="http://www.w3.org/2000/svg">
<path d="M5.45642 8.27739C5.14164 8.27739 4.83975 8.39003 4.61716 8.59054C4.39458 8.79104 4.26953 9.06298 4.26953 9.34654C4.26953 9.63009 4.39458 9.90204 4.61716 10.1025C4.83975 10.303 5.14164 10.4157 5.45642 10.4157H8.09133L11.2057 21.6417C11.4704 22.5933 12.4164 23.2455 13.5047 23.2455H28.3053C29.3771 23.2455 30.2874 22.604 30.5687 21.6738L33.6451 11.4848H31.1598L28.3041 21.1072H13.5036L10.3903 9.88111C10.2617 9.42055 9.96528 9.01219 9.54845 8.72142C9.13162 8.43065 8.61852 8.27429 8.09133 8.27739H5.45642ZM26.8205 23.2455C24.8681 23.2455 23.2598 24.6942 23.2598 26.4529C23.2598 28.2117 24.8681 29.6604 26.8205 29.6604C28.7729 29.6604 30.3812 28.2117 30.3812 26.4529C30.3812 24.6942 28.7729 23.2455 26.8205 23.2455ZM16.1385 23.2455C14.186 23.2455 12.5778 24.6942 12.5778 26.4529C12.5778 28.2117 14.186 29.6604 16.1385 29.6604C18.0909 29.6604 19.6991 28.2117 19.6991 26.4529C19.6991 24.6942 18.0909 23.2455 16.1385 23.2455ZM19.6991 8.27739V11.4848H16.1385V13.6231H19.6991V16.8306H22.0729V13.6231H25.6336V11.4848H22.0729V8.27739H19.6991ZM16.1385 25.3838C16.8079 25.3838 17.3254 25.8499 17.3254 26.4529C17.3254 27.0559 16.8079 27.5221 16.1385 27.5221C15.4691 27.5221 14.9516 27.0559 14.9516 26.4529C14.9516 25.8499 15.4691 25.3838 16.1385 25.3838ZM26.8205 25.3838C27.4899 25.3838 28.0074 25.8499 28.0074 26.4529C28.0074 27.0559 27.4899 27.5221 26.8205 27.5221C26.1511 27.5221 25.6336 27.0559 25.6336 26.4529C25.6336 25.8499 26.1511 25.3838 26.8205 25.3838Z" fill="#E8E8E8"/>
</svg>
