<svg width="27" height="26" viewBox="0 0 27 26" fill="none" xmlns="http://www.w3.org/2000/svg">
<g clip-path="url(#clip0_769_42)">
<g clip-path="url(#clip1_769_42)">
<path d="M13.3605 18.5028C13.3875 18.5382 13.422 18.5667 13.4614 18.5864C13.5008 18.606 13.5441 18.6162 13.5879 18.6162C13.6317 18.6162 13.675 18.606 13.7144 18.5864C13.7538 18.5667 13.7883 18.5382 13.8153 18.5028L17.8581 13.2696C18.0061 13.0776 17.8725 12.7932 17.6307 12.7932H14.9559V0.295455C14.9559 0.132955 14.826 0 14.6672 0H12.5014C12.3426 0 12.2126 0.132955 12.2126 0.295455V12.7895H9.54511C9.30326 12.7895 9.16971 13.0739 9.3177 13.2659L13.3605 18.5028ZM26.7991 17.2102H24.6333C24.4745 17.2102 24.3446 17.3432 24.3446 17.5057V23.1932H2.83121V17.5057C2.83121 17.3432 2.70126 17.2102 2.54244 17.2102H0.376661C0.217837 17.2102 0.0878906 17.3432 0.0878906 17.5057V24.8182C0.0878906 25.4719 0.604067 26 1.24297 26H25.9328C26.5717 26 27.0879 25.4719 27.0879 24.8182V17.5057C27.0879 17.3432 26.9579 17.2102 26.7991 17.2102Z" fill="#E8E8E8"/>
</g>
</g>
<defs>
<clipPath id="clip0_769_42">
<rect width="26" height="26" fill="white" transform="translate(0.99707)"/>
</clipPath>
<clipPath id="clip1_769_42">
<rect width="26" height="26" fill="white" transform="translate(1.08789)"/>
</clipPath>
</defs>
</svg>
