<svg width="26" height="26" viewBox="0 0 26 26" fill="none" xmlns="http://www.w3.org/2000/svg">
<path d="M25.9975 3.24995H20.3111V8.93634H21.9358V5.98754C23.518 7.98128 24.3771 10.4528 24.3728 12.9981C24.3754 19.2818 19.2836 24.3778 12.9999 24.3805C6.7162 24.3831 1.62013 19.2914 1.61749 13.0076C1.61485 6.72393 6.70666 1.62786 12.9903 1.62522C14.8672 1.62441 16.7152 2.088 18.3695 2.97462L19.1396 1.54409C12.8128 -1.84678 4.93494 0.53338 1.54407 6.8603C-1.84679 13.1872 0.53342 21.0651 6.86034 24.4559C13.1873 27.8468 21.0651 25.4666 24.456 19.1397C25.4682 17.2509 25.9978 15.1411 25.9975 12.9981C26.0034 10.0408 24.9898 7.17184 23.1275 4.87464H25.9975V3.24995Z" fill="#E8E8E8"/>
</svg>
