<?xml version="1.0"?>
<svg xmlns="http://www.w3.org/2000/svg" xmlns:xlink="http://www.w3.org/1999/xlink" xmlns:svgjs="http://svgjs.com/svgjs" version="1.1" width="512px" height="512px" x="0" y="0" viewBox="0 0 32 32" style="enable-background:new 0 0 512 512" xml:space="preserve"><g><g id="Layer_22" data-name="Layer 22"><path d="m16 31a15 15 0 1 1 15-15 15 15 0 0 1 -15 15zm0-28a13 13 0 1 0 13 13 13 13 0 0 0 -13-13z" fill="#393939" data-original="#000000"/><circle cx="9.78" cy="12.89" r="1.56" fill="#393939" data-original="#000000"/><circle cx="22.22" cy="12.89" r="1.56" fill="#393939" data-original="#000000"/><path d="m21.5 22.44a1 1 0 0 1 -.71-.29 6.78 6.78 0 0 0 -9.58 0 1 1 0 0 1 -1.42 0 1 1 0 0 1 0-1.41 8.8 8.8 0 0 1 12.42 0 1 1 0 0 1 0 1.41 1 1 0 0 1 -.71.29z" fill="#393939" data-original="#000000"/></g></g></svg>
