<svg width="26" height="26" viewBox="0 0 26 26" fill="none" xmlns="http://www.w3.org/2000/svg">
<g clip-path="url(#clip0_769_33)">
<path d="M25.996 6.42644C25.9818 6.28284 25.9259 6.13872 25.8276 6.01883C25.7897 5.97247 26.1777 6.36343 20.0384 0.224106C19.892 0.0777568 19.6934 0.000925807 19.4995 0.000976588C19.0376 0.000976588 2.7453 0.000976588 2.28512 0.000976588C1.02511 0.000976588 0 1.02608 0 2.2861V23.7155C0 24.9755 1.02511 26.0006 2.28512 26.0006H23.7145C24.9745 26.0006 25.9996 24.9755 25.9996 23.7155C25.9997 5.22193 26.0017 6.48484 25.996 6.42644ZM17.5193 1.52439V6.50089C17.5193 6.92089 17.1776 7.2626 16.7576 7.2626H15.7928V1.52439H17.5193ZM14.2694 1.52439V7.2626H7.21089C6.79088 7.2626 6.44918 6.92089 6.44918 6.50089V1.52439H14.2694ZM17.5193 16.3015H6.44918V15.3367C6.44918 14.9167 6.79088 14.575 7.21089 14.575H16.7576C17.1776 14.575 17.5193 14.9167 17.5193 15.3367V16.3015ZM6.44918 24.4772V17.825H17.5193V24.4772H6.44918ZM24.4763 23.7155C24.4763 24.1355 24.1346 24.4772 23.7146 24.4772H19.0428C19.0428 23.4842 19.0428 16.4687 19.0428 15.3367C19.0428 14.0767 18.0177 13.0516 16.7576 13.0516H7.21089C5.95087 13.0516 4.92576 14.0767 4.92576 15.3367V24.4772H2.28518C1.86517 24.4772 1.52347 24.1355 1.52347 23.7155V2.2861C1.52347 1.8661 1.86517 1.52439 2.28518 1.52439H4.92576V6.50089C4.92576 7.76091 5.95087 8.78601 7.21089 8.78601H16.7576C18.0177 8.78601 19.0428 7.76091 19.0428 6.50089V1.52439H19.1843L24.4763 6.81644V23.7155Z" fill="#E8E8E8"/>
</g>
<defs>
<clipPath id="clip0_769_33">
<rect width="26" height="26" fill="white"/>
</clipPath>
</defs>
</svg>
