<svg width="27" height="26" viewBox="0 0 27 26" fill="none" xmlns="http://www.w3.org/2000/svg">
<path d="M26.7583 0.240361C26.8729 0.355153 26.9513 0.501089 26.9837 0.66004C27.016 0.818991 27.001 0.983952 26.9404 1.13443L17.306 25.2197C17.2211 25.4318 17.0793 25.6164 16.8963 25.7531C16.7132 25.8898 16.496 25.9734 16.2685 25.9946C16.041 26.0159 15.8121 25.9739 15.6069 25.8734C15.4017 25.7729 15.2283 25.6177 15.1056 25.425L9.84382 17.1549L1.57367 11.8931C1.38048 11.7705 1.2249 11.597 1.1241 11.3916C1.0233 11.1862 0.981195 10.957 1.00243 10.7292C1.02367 10.5014 1.10743 10.2839 1.24445 10.1007C1.38148 9.91753 1.56646 9.77574 1.77897 9.69102L25.8642 0.0598915C26.0147 -0.000686344 26.1797 -0.0157195 26.3386 0.0166594C26.4976 0.0490383 26.6435 0.127402 26.7583 0.242017V0.240361ZM11.4962 16.6714L16.0675 23.8538L23.9039 4.26368L11.4962 16.6714ZM22.7333 3.09311L3.14326 10.9295L10.3273 15.4992L22.735 3.09311H22.7333Z" fill="#E8E8E8"/>
</svg>
