<svg width="15" height="16" viewBox="0 0 15 16" fill="none" xmlns="http://www.w3.org/2000/svg">
<path d="M8.25 4.24991H6.75V7.24991H3.75V8.74991H6.75V11.7499H8.25V8.74991H11.25V7.24991H8.25V4.24991ZM7.5 0.499908C3.36 0.499908 0 3.85991 0 7.99991C0 12.1399 3.36 15.4999 7.5 15.4999C11.64 15.4999 15 12.1399 15 7.99991C15 3.85991 11.64 0.499908 7.5 0.499908ZM7.5 13.9999C4.1925 13.9999 1.5 11.3074 1.5 7.99991C1.5 4.69241 4.1925 1.99991 7.5 1.99991C10.8075 1.99991 13.5 4.69241 13.5 7.99991C13.5 11.3074 10.8075 13.9999 7.5 13.9999Z" fill="white"/>
</svg>
