<svg fill="white" height="512" viewBox="0 0 24 24" width="512" xmlns="http://www.w3.org/2000/svg"><g id="Layer_19" data-name="Layer 19"><path d="m23 12a11 11 0 0 0 -3.73-8.24h-.06a11 11 0 0 0 -14.4 0h-.06a11 11 0 0 0 0 16.48 0 0 0 0 1 0 0s0 0 0 0a10.95 10.95 0 0 0 14.42 0s0 0 .05 0a0 0 0 0 1 0 0 11 11 0 0 0 3.78-8.24zm-2 0a9 9 0 0 1 -2.5 6.21 9 9 0 0 1 0-12.42 9 9 0 0 1 2.5 6.21zm-18 0a9 9 0 0 1 2.5-6.21 9 9 0 0 1 2.5 6.21 9 9 0 0 1 -2.5 6.21 9 9 0 0 1 -2.5-6.21zm4 7.5a11 11 0 0 0 3-7.5 11 11 0 0 0 -3-7.5 9 9 0 0 1 10 0 11 11 0 0 0 0 15 9 9 0 0 1 -10 0z"/></g></svg>