<svg width="21" height="20" viewBox="0 0 21 20" xmlns="http://www.w3.org/2000/svg">
<g clip-path="url(#clip0_759_1568)">
<path d="M16.8984 20H4.10156C1.83992 20 0 18.2477 0 16.0938V3.90625C0 1.75234 1.83992 0 4.10156 0H12.0599C12.5129 0 12.8802 0.349766 12.8802 0.78125C12.8802 1.21273 12.5129 1.5625 12.0599 1.5625H4.10156C2.7446 1.5625 1.64062 2.61391 1.64062 3.90625V16.0938C1.64062 17.3861 2.7446 18.4375 4.10156 18.4375H16.8984C18.2554 18.4375 19.3594 17.3861 19.3594 16.0938V8.51441C19.3594 8.08293 19.7266 7.73316 20.1797 7.73316C20.6327 7.73316 21 8.08293 21 8.51441V16.0938C21 18.2477 19.1601 20 16.8984 20Z" fill="#ED1D25"/>
<path d="M19.6992 1.23902C18.4198 0.0205859 16.3382 0.0205859 15.0587 1.23902L6.12928 9.74332C4.62531 11.1756 3.97645 13.2166 4.39358 15.2029C4.4585 15.5121 4.71231 15.7539 5.03703 15.8157C7.11263 16.2111 9.25852 15.6019 10.7697 14.1627L19.6992 5.6584C20.9785 4.44 20.9785 2.45746 19.6992 1.23902ZM18.5391 4.55359L9.60953 13.0579C8.63008 13.9907 7.28534 14.4576 5.92424 14.358C5.81944 13.062 6.30979 11.7811 7.28936 10.8482L14.2385 4.22996L14.8186 4.78242C15.1389 5.0875 15.6583 5.08758 15.9786 4.78242C16.299 4.47734 16.2991 3.98266 15.9787 3.67758L15.3986 3.12512L16.2189 2.34387C16.8586 1.73465 17.8995 1.73465 18.5391 2.34387C19.1788 2.95309 19.1788 3.94438 18.5391 4.55359Z" fill="#ED1D25"/>
</g>
<defs>
<clipPath id="clip0_759_1568">
<rect width="21" height="20" fill="#ED1D25"/>
</clipPath>
</defs>
</svg>
