<svg id="Layer_2" height="512" viewBox="0 0 16 16" width="512" xmlns="http://www.w3.org/2000/svg" data-name="Layer 2"><path d="m8 9a3 3 0 1 0 -3-3 3.0033 3.0033 0 0 0 3 3zm0-5a2 2 0 1 1 -2 2 2.0023 2.0023 0 0 1 2-2z"/><path d="m5.061 15.3945a.9811.9811 0 0 0 .4434.1075.961.961 0 0 0 .5649-.1846l1.9209-1.38 1.9356 1.377a.9684.9684 0 0 0 1.0132.08 1.0291 1.0291 0 0 0 .561-.9244v-4.23a5.5 5.5 0 1 0 -7 0v4.23a1.0291 1.0291 0 0 0 .561.9245zm5.4488-.8916-1.9414-1.3808a.9721.9721 0 0 0 -1.1377.0009l-1.9307 1.347v-3.5772a5.45 5.45 0 0 0 5.002-.001zm-7.0098-8.5029a4.5 4.5 0 1 1 4.5 4.5 4.505 4.505 0 0 1 -4.5-4.5z"/></svg>