<svg width="14" height="14" viewBox="0 0 14 14" fill="none" xmlns="http://www.w3.org/2000/svg">
<path d="M7.00001 3.79167C8.07261 3.7881 9.12444 4.08729 10.0346 4.65484C10.9447 5.22239 11.6762 6.03526 12.145 7C11.6768 7.96517 10.9454 8.77843 10.0351 9.34606C9.12487 9.91368 8.07275 10.2126 7.00001 10.2083C5.92727 10.2126 4.87515 9.91368 3.96488 9.34606C3.05461 8.77843 2.32323 7.96517 1.85501 7C2.32379 6.03526 3.0553 5.22239 3.96544 4.65484C4.87558 4.08729 5.92741 3.7881 7.00001 3.79167ZM7.00001 2.625C4.08334 2.625 1.59251 4.43917 0.583344 7C1.59251 9.56083 4.08334 11.375 7.00001 11.375C9.91668 11.375 12.4075 9.56083 13.4167 7C12.4075 4.43917 9.91668 2.625 7.00001 2.625ZM7.00001 5.54167C7.38678 5.54167 7.75772 5.69531 8.03121 5.9688C8.3047 6.24229 8.45834 6.61323 8.45834 7C8.45834 7.38677 8.3047 7.75771 8.03121 8.0312C7.75772 8.30469 7.38678 8.45833 7.00001 8.45833C6.61324 8.45833 6.2423 8.30469 5.96881 8.0312C5.69532 7.75771 5.54168 7.38677 5.54168 7C5.54168 6.61323 5.69532 6.24229 5.96881 5.9688C6.2423 5.69531 6.61324 5.54167 7.00001 5.54167ZM7.00001 4.375C5.55334 4.375 4.37501 5.55333 4.37501 7C4.37501 8.44667 5.55334 9.625 7.00001 9.625C8.44668 9.625 9.62501 8.44667 9.62501 7C9.62501 5.55333 8.44668 4.375 7.00001 4.375Z" fill="#ED1D25"/>
</svg>
