<?xml version="1.0"?>
<svg xmlns="http://www.w3.org/2000/svg" xmlns:xlink="http://www.w3.org/1999/xlink" xmlns:svgjs="http://svgjs.com/svgjs" version="1.1" width="512" height="512" x="0" y="0" viewBox="0 0 512 512" style="enable-background:new 0 0 512 512" xml:space="preserve"><g><path xmlns="http://www.w3.org/2000/svg" d="m361 150c-5.857 0-11.449 1.136-16.586 3.181-5.205-19.096-22.691-33.181-43.414-33.181-5.857 0-11.449 1.136-16.586 3.181-5.205-19.096-22.691-33.181-43.414-33.181-5.258 0-10.305.915-15 2.58v-47.58c0-24.813-20.187-45-45-45s-45 20.187-45 45v165h-15c-8.284 0-15 6.716-15 15v62.574c0 41.039 15.981 79.621 45 108.64 9.673 9.673 15 22.533 15 36.213v64.573c0 8.284 6.716 15 15 15h180c8.284 0 15-6.716 15-15v-58.459c0-19.626 4.639-39.278 13.417-56.833 10.849-21.698 16.583-45.99 16.583-70.249 0-24.449 0-95.31 0-116.459 0-24.813-20.187-45-45-45zm0 30c8.271 0 15 6.729 15 15v30c0 8.271-6.729 15-15 15s-15-6.729-15-15v-30c0-8.271 6.729-15 15-15zm-60-30c8.271 0 15 6.729 15 15v60c0 8.271-6.729 15-15 15s-15-6.729-15-15v-60c0-8.271 6.729-15 15-15zm-60-30c8.271 0 15 6.729 15 15v75h-30v-75c0-8.271 6.729-15 15-15zm-75-75c0-8.271 6.729-15 15-15s15 6.729 15 15v165h-30zm196.583 323.292c-10.849 21.698-16.583 45.99-16.583 70.249v43.459h-150v-49.574c0-21.693-8.448-42.087-23.787-57.426-23.352-23.352-36.213-54.401-36.213-87.426v-47.774h117.43c-6.191 17.461-22.874 30.2-42.43 30.2h-30c-8.284 0-15 6.716-15 15s6.716 15 15 15h30c27.748 0 52.006-15.159 64.978-37.618 7.16 4.808 15.768 7.618 25.022 7.618 11.517 0 22.032-4.354 30-11.495 7.968 7.142 18.483 11.495 30 11.495 5.258 0 10.305-.915 15-2.58v44.039c0 19.626-4.639 39.278-13.417 56.833z" fill="#3c3c3c" data-original="#000000"/><path xmlns="http://www.w3.org/2000/svg" d="m301 420h-15v-75c0-5.199-2.692-10.027-7.114-12.76s-9.945-2.981-14.594-.657l-30 15c-7.41 3.705-10.413 12.715-6.708 20.125 3.705 7.409 12.716 10.413 20.125 6.708l8.292-4.146v50.73h-15c-8.284 0-15 6.716-15 15s6.716 15 15 15h60c8.284 0 15-6.716 15-15s-6.717-15-15.001-15z" fill="#3c3c3c" data-original="#000000"/></g></svg>
