<svg width="25" height="25" viewBox="0 0 25 25" fill="none" xmlns="http://www.w3.org/2000/svg">
<g clip-path="url(#clip0_950_362)">
<path d="M18.0664 0H4.98047C4.57592 0 4.24805 0.327873 4.24805 0.732422V20.6055C4.24805 21.01 4.57592 21.3379 4.98047 21.3379H5.41992V24.2676C5.41992 24.5155 5.54523 24.7465 5.75314 24.8815C5.96104 25.0168 6.22311 25.0376 6.4497 24.9371L8.05664 24.2233L9.66358 24.9371C9.75876 24.9792 9.86004 25 9.96094 25C10.1006 25 10.2394 24.9601 10.3601 24.8815C10.568 24.7465 10.6934 24.5155 10.6934 24.2676V21.3379H18.0664C19.5473 21.3379 20.7519 20.1332 20.7519 18.6523V2.68555C20.7519 1.20468 19.5473 0 18.0664 0ZM5.71289 1.46484H15.3809V19.873H5.71289V1.46484ZM9.22851 23.1409L8.354 22.7526C8.2592 22.7104 8.15792 22.6894 8.05664 22.6894C7.95536 22.6894 7.85408 22.7104 7.75928 22.7526L6.88476 23.1409V21.3379H9.22851V23.1409ZM19.2871 18.6523C19.2871 19.3254 18.7395 19.873 18.0664 19.873H16.8457V1.46484H18.0664C18.7395 1.46484 19.2871 2.01244 19.2871 2.68555V18.6523Z" fill="white"/>
</g>
<defs>
<clipPath id="clip0_950_362">
<rect width="25" height="25" fill="white"/>
</clipPath>
</defs>
</svg>
