<svg width="20" height="20" viewBox="0 0 20 20" fill="none" xmlns="http://www.w3.org/2000/svg">
<path d="M17.8125 7.8125C17.381 7.8125 17.0312 8.16227 17.0312 8.59375V14.5312C17.0312 14.962 16.6808 15.3125 16.25 15.3125H6.875C6.44422 15.3125 6.09375 14.962 6.09375 14.5312V2.34375C6.09375 1.91297 6.44422 1.5625 6.875 1.5625H12.3438V3.90625C12.3438 5.19859 13.3952 6.25 14.6875 6.25H17.8125C18.1285 6.25 18.4134 6.05965 18.5343 5.76773C18.6552 5.47578 18.5884 5.13977 18.365 4.91633L13.6775 0.228828C13.5273 0.0787109 13.323 0 13.125 0H6.875C5.58266 0 4.53125 1.05141 4.53125 2.34375V3.125H3.75C2.45766 3.125 1.40625 4.17641 1.40625 5.46875V17.6562C1.40625 18.9486 2.45766 20 3.75 20H13.125C14.4173 20 15.4688 18.9486 15.4688 17.6562V16.875H16.25C17.5423 16.875 18.5938 15.8236 18.5938 14.5312V8.59375C18.5938 8.16227 18.244 7.8125 17.8125 7.8125ZM14.6875 4.6875C14.2567 4.6875 13.9062 4.33703 13.9062 3.90625V2.66734L15.9264 4.6875H14.6875ZM13.9062 17.6562C13.9062 18.087 13.5558 18.4375 13.125 18.4375H3.75C3.31922 18.4375 2.96875 18.087 2.96875 17.6562V5.46875C2.96875 5.03797 3.31922 4.6875 3.75 4.6875H4.53125V14.5312C4.53125 15.8236 5.58266 16.875 6.875 16.875H13.9062V17.6562Z" fill="white"/>
<path d="M14.6875 9.375H8.4375C8.00602 9.375 7.65625 9.02523 7.65625 8.59375C7.65625 8.16227 8.00602 7.8125 8.4375 7.8125H14.6875C15.119 7.8125 15.4688 8.16227 15.4688 8.59375C15.4688 9.02523 15.119 9.375 14.6875 9.375Z" fill="white"/>
<path d="M14.6875 12.5H8.4375C8.00602 12.5 7.65625 12.1502 7.65625 11.7188C7.65625 11.2873 8.00602 10.9375 8.4375 10.9375H14.6875C15.119 10.9375 15.4688 11.2873 15.4688 11.7188C15.4688 12.1502 15.119 12.5 14.6875 12.5Z" fill="white"/>
</svg>
