<svg width="25" height="25" viewBox="0 0 25 25" fill="none" xmlns="http://www.w3.org/2000/svg">
<path d="M22.9391 16.7055C22.6898 16.4117 22.3377 16.2371 21.9587 16.1983V7.18818C21.9587 6.08167 21.0584 5.18146 19.9519 5.18146H19.0252V2.25085C19.0252 1.44047 18.3656 0.78125 17.5556 0.78125H7.29414C6.48414 0.78125 5.82454 1.44047 5.82454 2.25085V5.18146H4.89779C3.79128 5.18146 2.89107 6.08167 2.89107 7.18818V16.1983C2.51207 16.237 2.1599 16.4116 1.91063 16.7055C1.62843 17.0385 1.50816 17.4761 1.58546 17.9369L1.94715 19.6587C2.14912 20.6187 3.00782 21.3156 3.98966 21.3156H20.8601C21.842 21.3156 22.7007 20.6187 22.9026 19.6583L23.2701 17.9065C23.3416 17.4761 23.2213 17.0386 22.9391 16.7055ZM19.9519 6.6482C20.2498 6.6482 20.4919 6.89028 20.4919 7.18818V16.182H19.0252V6.6482H19.9519ZM17.5584 2.25085V16.182H7.29128L7.29414 2.24799L17.5584 2.25085ZM4.89779 6.6482H5.82454V16.182H4.35781V7.18818C4.35781 6.89028 4.59989 6.6482 4.89779 6.6482ZM21.4674 19.3564C21.4072 19.6419 21.1522 19.8488 20.8601 19.8488H3.98966C3.69748 19.8488 3.44249 19.6419 3.38235 19.3568L3.04075 17.6487C9.3035 17.6443 15.5662 17.6399 21.829 17.6354L21.4674 19.3564Z" fill="white"/>
<path d="M9.49127 11.0488H11.6914C12.0967 11.0488 12.4247 10.7204 12.4247 10.3154C12.4247 9.91043 12.0967 9.58203 11.6914 9.58203H9.49127C9.08594 9.58203 8.7579 9.91043 8.7579 10.3154C8.7579 10.7204 9.08594 11.0488 9.49127 11.0488Z" fill="white"/>
<path d="M9.49127 8.11517H15.3582C15.7636 8.11517 16.0916 7.78677 16.0916 7.38181C16.0916 6.97684 15.7636 6.64844 15.3582 6.64844H9.49127C9.08594 6.64844 8.7579 6.97684 8.7579 7.38181C8.7579 7.78677 9.08594 8.11517 9.49127 8.11517Z" fill="white"/>
<path d="M9.49127 5.18158H15.3582C15.7636 5.18158 16.0916 4.85318 16.0916 4.44821C16.0916 4.04325 15.7636 3.71484 15.3582 3.71484H9.49127C9.08594 3.71484 8.7579 4.04325 8.7579 4.44821C8.7579 4.85318 9.08594 5.18158 9.49127 5.18158Z" fill="white"/>
</svg>
