<svg width="25" height="25" viewBox="0 0 25 25" fill="none" xmlns="http://www.w3.org/2000/svg">
<path d="M21.75 19.5938L21.4688 18.4609C19.6747 21.3573 16.5605 23.1749 13.1562 23.3125C7.97856 23.3125 3.78125 19.1152 3.78125 13.9375H5.34375C5.34375 18.2522 8.8415 21.75 13.1562 21.75C16.1069 21.6207 18.7901 20.0025 20.2812 17.4531L18.8125 17.8438L18.4375 16.2812L21.5625 15.5C21.981 15.3968 22.404 15.652 22.5078 16.0703L23.2891 19.1953L21.75 19.5938ZM4.75 10.8125L7.875 10.0312L7.5 8.46875L6.03125 8.83594C7.52808 6.29556 10.2103 4.68682 13.1562 4.5625C17.471 4.5625 20.9688 8.06025 20.9688 12.375H22.5312C22.5312 7.19731 18.3339 3 13.1562 3C9.7436 3.12993 6.61899 4.94849 4.82031 7.85156L4.5625 6.71875L3 7.09375L3.78125 10.2188C3.79897 10.2788 3.88423 10.543 4.16021 10.7075C4.42485 10.8653 4.6856 10.8245 4.75 10.8125Z" fill="white"/>
</svg>
