<svg width="24" height="24" viewBox="0 0 24 24" fill="none" xmlns="http://www.w3.org/2000/svg">
<path d="M10.5462 20.6992C10.7015 20.8545 10.908 20.9357 11.1169 20.9357C11.2557 20.9357 11.3952 20.9002 11.5214 20.8269L21.6292 14.97C23.0688 14.1359 24.0274 12.8796 24.1938 11.6092C24.3057 10.7538 24.0385 9.95436 23.4425 9.35795C22.5885 8.5033 21.1998 8.25397 19.7797 8.53863C19.9041 8.15794 19.9835 7.77257 20.0004 7.39174C20.0414 6.46696 19.7481 5.66322 19.1513 5.06681C18.5553 4.47079 17.7661 4.17909 16.8264 4.21772C16.4456 4.23462 16.0602 4.31405 15.6795 4.43852C15.9643 3.01825 15.715 1.62967 14.861 0.775654C14.2642 0.17964 13.4679 -0.0864384 12.6094 0.0247188C11.3393 0.191063 10.0826 1.14935 9.24849 2.58853L3.39162 12.6967C3.20792 13.0133 3.26074 13.4138 3.51933 13.6724L4.23479 14.3878L3.74559 14.877L3.17008 14.3015C2.85472 13.9861 2.34385 13.9861 2.0285 14.3015L1.63431 14.6957C0.580248 15.749 0 17.1499 0 18.6399C0 20.13 0.580248 21.5309 1.63431 22.5842C2.68759 23.6383 4.08853 24.2185 5.57857 24.2185C7.0686 24.2185 8.46955 23.6383 9.52283 22.5842L9.91702 22.19C10.2324 21.8747 10.2324 21.3638 9.91702 21.0484L9.34151 20.4729L9.8307 19.9837L10.5462 20.6992ZM22.3009 10.4995C22.5445 10.7435 22.6399 11.038 22.5926 11.3998C22.494 12.1531 21.7987 13.0062 20.8203 13.573L11.2494 19.1185L9.96906 17.8389L17.9837 11.131C19.3941 9.95199 21.451 9.65083 22.3009 10.4995ZM10.6455 3.3982C11.2123 2.42021 12.0654 1.72447 12.819 1.62592C13.1785 1.57783 13.475 1.67322 13.7194 1.91762C14.5685 2.76671 14.2673 4.82438 13.0871 6.23479L6.37957 14.2495L5.10003 12.9691L10.6455 3.3982ZM5.57857 22.6039C4.51978 22.6039 3.52484 22.1916 2.77588 21.4426C2.02692 20.6937 1.61459 19.6987 1.61459 18.6399C1.61459 17.6647 1.96463 16.7439 2.6048 16.0194L8.19914 21.6137C7.47462 22.2539 6.5538 22.6039 5.57857 22.6039ZM8.19993 19.3313L4.88716 16.0186L5.37595 15.5298L8.68873 18.8426L8.19993 19.3313ZM8.82275 16.6926L7.52586 15.3958L14.3249 7.27111C15.036 6.42124 16.0222 5.86976 16.8981 5.83074C17.3648 5.81852 17.7385 5.93717 18.0097 6.20837C18.2809 6.47957 18.4079 6.85366 18.3874 7.32038C18.3487 8.19627 17.7969 9.18213 16.9478 9.89286L8.82275 16.6926Z" fill="white"/>
</svg>
