<svg width="32" height="24" viewBox="0 0 32 24" fill="none" xmlns="http://www.w3.org/2000/svg">
<path d="M30.75 13.7576C31.4404 13.7576 32 13.198 32 12.5076V5.25C32 2.493 29.757 0.25 27 0.25H5C2.243 0.25 0 2.493 0 5.25V18.75C0 21.507 2.243 23.75 5 23.75H27C29.757 23.75 32 21.507 32 18.75C32 18.0596 31.4404 17.5 30.75 17.5C30.0596 17.5 29.5 18.0596 29.5 18.75C29.5 20.1285 28.3785 21.25 27 21.25H5C3.6215 21.25 2.5 20.1285 2.5 18.75V9.38262H29.5V12.5076C29.5 13.198 30.0596 13.7576 30.75 13.7576ZM2.5 6.88262V5.25C2.5 3.8715 3.6215 2.75 5 2.75H27C28.3785 2.75 29.5 3.8715 29.5 5.25V6.88262H2.5Z" fill="white"/>
</svg>
