<svg width="26" height="26" viewBox="0 0 26 26" fill="none" xmlns="http://www.w3.org/2000/svg">
<g clip-path="url(#clip0_167_12762)">
<path d="M22.1926 3.80746C14.0257 -4.3431 0.0132874 1.46136 0.00248064 12.9991C-0.141627 19.9857 6.01391 26.1424 13.0013 25.9976C24.5394 25.9861 30.3432 11.9735 22.1926 3.80746ZM3.432 19.324L5.43172 17.3243L4.35038 16.243L2.65152 17.9419C0.620659 13.6792 1.36663 8.41318 4.89102 4.8888C8.39135 1.39744 13.6075 0.595751 17.944 2.6494L16.2452 4.34815L17.3266 5.42949L19.3262 3.42993C19.7509 3.7107 20.1603 4.02339 20.5522 4.3666L4.36878 20.55C4.02551 20.1581 3.71288 19.7486 3.432 19.324ZM21.1113 21.1091C17.5869 24.6335 12.3208 25.3794 8.05822 23.3486L9.75708 21.6498L8.67574 20.5684L6.67608 22.5681C6.25145 22.2873 5.84197 21.9746 5.45007 21.6314L21.6335 5.44795C21.9767 5.83984 22.2894 6.24933 22.5703 6.67395L20.5705 8.67362L21.6519 9.75496L23.3507 8.0561C25.3817 12.3187 24.6357 17.5847 21.1113 21.1091Z" fill="white"/>
<path d="M17.8643 11.3777L19.486 9.7559L20.5672 10.8371L18.9454 12.4589L17.8643 11.3777Z" fill="white"/>
<path d="M15.1606 14.0803L16.7824 12.4586L17.8636 13.5398L16.2418 15.1615L15.1606 14.0803Z" fill="white"/>
<path d="M12.4575 16.7832L14.0793 15.1615L15.1605 16.2426L13.5387 17.8644L12.4575 16.7832Z" fill="white"/>
<path d="M9.75391 19.4858L11.3757 17.8641L12.4569 18.9452L10.8351 20.567L9.75391 19.4858Z" fill="white"/>
<path d="M13.5396 7.05225L15.1613 5.43046L16.2425 6.51165L14.6207 8.13343L13.5396 7.05225Z" fill="white"/>
<path d="M10.8364 9.75488L12.4582 8.13314L13.5394 9.21432L11.9176 10.8361L10.8364 9.75488Z" fill="white"/>
<path d="M8.13281 12.4578L9.75456 10.836L10.8357 11.9172L9.214 13.539L8.13281 12.4578Z" fill="white"/>
<path d="M5.42969 15.1606L7.05147 13.5389L8.13266 14.6201L6.51088 16.2418L5.42969 15.1606Z" fill="white"/>
</g>
<defs>
<clipPath id="clip0_167_12762">
<rect width="26" height="26" fill="white"/>
</clipPath>
</defs>
</svg>
