<svg width="28" height="28" viewBox="0 0 28 28" fill="none" xmlns="http://www.w3.org/2000/svg">
<g clip-path="url(#clip0_167_12491)">
<path d="M20.2344 0H5.57812C5.12503 0 4.75781 0.367218 4.75781 0.820312V23.0781C4.75781 23.5312 5.12503 23.8984 5.57812 23.8984H6.07031V27.1797C6.07031 27.4574 6.21066 27.7161 6.44351 27.8673C6.67636 28.0188 6.96988 28.0421 7.22366 27.9295L9.02344 27.1301L10.8232 27.9295C10.9298 27.9767 11.0432 28 11.1562 28C11.3126 28 11.4681 27.9553 11.6034 27.8673C11.8362 27.7161 11.9766 27.4574 11.9766 27.1797V23.8984H20.2344C21.8929 23.8984 23.2422 22.5492 23.2422 20.8906V3.00781C23.2422 1.34924 21.8929 0 20.2344 0ZM6.39844 1.64062H17.2266V22.2578H6.39844V1.64062ZM10.3359 25.9178L9.35647 25.4829C9.2503 25.4357 9.13687 25.4122 9.02344 25.4122C8.91 25.4122 8.79657 25.4357 8.6904 25.4829L7.71094 25.9178V23.8984H10.3359V25.9178ZM21.6016 20.8906C21.6016 21.6445 20.9882 22.2578 20.2344 22.2578H18.8672V1.64062H20.2344C20.9882 1.64062 21.6016 2.25394 21.6016 3.00781V20.8906Z" fill="white"/>
</g>
<defs>
<clipPath id="clip0_167_12491">
<rect width="28" height="28" fill="white"/>
</clipPath>
</defs>
</svg>
