<svg width="27" height="27" viewBox="0 0 27 27" fill="none" xmlns="http://www.w3.org/2000/svg">
<path d="M24.0469 10.5469C23.4644 10.5469 22.9922 11.0191 22.9922 11.6016V19.6172C22.9922 20.1987 22.5191 20.6719 21.9375 20.6719H9.28125C8.69969 20.6719 8.22656 20.1987 8.22656 19.6172V3.16406C8.22656 2.58251 8.69969 2.10938 9.28125 2.10938H16.6641V5.27344C16.6641 7.0181 18.0835 8.4375 19.8281 8.4375H24.0469C24.4734 8.4375 24.858 8.18053 25.0213 7.78644C25.1846 7.3923 25.0943 6.93868 24.7927 6.63704L18.4646 0.308918C18.2619 0.10626 17.986 0 17.7187 0H9.28125C7.53659 0 6.11719 1.4194 6.11719 3.16406V4.21875H5.0625C3.31784 4.21875 1.89844 5.63815 1.89844 7.38281V23.8359C1.89844 25.5806 3.31784 27 5.0625 27H17.7187C19.4634 27 20.8828 25.5806 20.8828 23.8359V22.7812H21.9375C23.6822 22.7812 25.1016 21.3619 25.1016 19.6172V11.6016C25.1016 11.0191 24.6294 10.5469 24.0469 10.5469ZM19.8281 6.32812C19.2466 6.32812 18.7734 5.85499 18.7734 5.27344V3.60091L21.5006 6.32812H19.8281ZM18.7734 23.8359C18.7734 24.4175 18.3003 24.8906 17.7187 24.8906H5.0625C4.48095 24.8906 4.00781 24.4175 4.00781 23.8359V7.38281C4.00781 6.80126 4.48095 6.32812 5.0625 6.32812H6.11719V19.6172C6.11719 21.3619 7.53659 22.7812 9.28125 22.7812H18.7734V23.8359Z" fill="white"/>
<path d="M19.8281 12.6562H11.3906C10.8081 12.6562 10.3359 12.1841 10.3359 11.6016C10.3359 11.0191 10.8081 10.5469 11.3906 10.5469H19.8281C20.4106 10.5469 20.8828 11.0191 20.8828 11.6016C20.8828 12.1841 20.4106 12.6562 19.8281 12.6562Z" fill="white"/>
<path d="M19.8281 16.875H11.3906C10.8081 16.875 10.3359 16.4028 10.3359 15.8203C10.3359 15.2378 10.8081 14.7656 11.3906 14.7656H19.8281C20.4106 14.7656 20.8828 15.2378 20.8828 15.8203C20.8828 16.4028 20.4106 16.875 19.8281 16.875Z" fill="white"/>
</svg>
