<svg width="29" height="29" viewBox="0 0 29 29" fill="none" xmlns="http://www.w3.org/2000/svg">
<path d="M22.0584 4.8125H20.548V3.90625C20.548 3.6659 20.4525 3.43539 20.2826 3.26543C20.1126 3.09548 19.8821 3 19.6418 3C19.4014 3 19.1709 3.09548 19.001 3.26543C18.831 3.43539 18.7355 3.6659 18.7355 3.90625V4.8125H10.8814V3.90625C10.8814 3.6659 10.7859 3.43539 10.6159 3.26543C10.446 3.09548 10.2155 3 9.9751 3C9.73475 3 9.50424 3.09548 9.33429 3.26543C9.16433 3.43539 9.06885 3.6659 9.06885 3.90625V4.8125H7.55843C6.94622 4.74154 6.32589 4.80993 5.74384 5.01256C5.16179 5.21519 4.63309 5.5468 4.19729 5.9826C3.76149 6.4184 3.42987 6.9471 3.22725 7.52915C3.02462 8.1112 2.95623 8.73154 3.02718 9.34375V22.0312C2.95623 22.6435 3.02462 23.2638 3.22725 23.8458C3.42987 24.4279 3.76149 24.9566 4.19729 25.3924C4.63309 25.8282 5.16179 26.1598 5.74384 26.3624C6.32589 26.5651 6.94622 26.6335 7.55843 26.5625H22.0584C22.6706 26.6335 23.291 26.5651 23.873 26.3624C24.4551 26.1598 24.9838 25.8282 25.4196 25.3924C25.8554 24.9566 26.187 24.4279 26.3896 23.8458C26.5923 23.2638 26.6606 22.6435 26.5897 22.0312V9.34375C26.6606 8.73154 26.5923 8.1112 26.3896 7.52915C26.187 6.9471 25.8554 6.4184 25.4196 5.9826C24.9838 5.5468 24.4551 5.21519 23.873 5.01256C23.291 4.80993 22.6706 4.74154 22.0584 4.8125ZM7.55843 6.625H9.06885V7.53125C9.06885 7.7716 9.16433 8.00211 9.33429 8.17207C9.50424 8.34202 9.73475 8.4375 9.9751 8.4375C10.2155 8.4375 10.446 8.34202 10.6159 8.17207C10.7859 8.00211 10.8814 7.7716 10.8814 7.53125V6.625H18.7355V7.53125C18.7355 7.7716 18.831 8.00211 19.001 8.17207C19.1709 8.34202 19.4014 8.4375 19.6418 8.4375C19.8821 8.4375 20.1126 8.34202 20.2826 8.17207C20.4525 8.00211 20.548 7.7716 20.548 7.53125V6.625H22.0584C23.964 6.625 24.7772 7.43821 24.7772 9.34375V10.25H4.83968V9.34375C4.83968 7.43821 5.65289 6.625 7.55843 6.625ZM22.0584 24.75H7.55843C5.65289 24.75 4.83968 23.9368 4.83968 22.0312V12.0625H24.7772V22.0312C24.7772 23.9368 23.964 24.75 22.0584 24.75ZM18.4697 15.7479C18.5539 15.8321 18.6207 15.932 18.6663 16.042C18.7119 16.152 18.7353 16.2699 18.7353 16.3889C18.7353 16.508 18.7119 16.6259 18.6663 16.7359C18.6207 16.8459 18.5539 16.9458 18.4697 17.03L14.4459 21.0646C14.362 21.1489 14.2622 21.2158 14.1523 21.2615C14.0424 21.3071 13.9245 21.3306 13.8055 21.3306C13.6865 21.3306 13.5687 21.3071 13.4588 21.2615C13.3489 21.2158 13.2491 21.1489 13.1651 21.0646L11.1472 19.0467C10.9871 18.8749 10.9 18.6476 10.9041 18.4129C10.9082 18.1781 11.0034 17.9541 11.1694 17.788C11.3354 17.622 11.5594 17.5269 11.7942 17.5227C12.029 17.5186 12.2562 17.6058 12.428 17.7658L13.8019 19.1385L17.1852 15.7552C17.2689 15.67 17.3685 15.6022 17.4785 15.5557C17.5885 15.5091 17.7066 15.4849 17.8259 15.4842C17.9453 15.4835 18.0637 15.5065 18.1742 15.5517C18.2847 15.597 18.3851 15.6637 18.4697 15.7479Z" fill="white"/>
</svg>
