<svg width="32" height="32" viewBox="0 0 32 32" fill="none" xmlns="http://www.w3.org/2000/svg">
<path d="M29.362 21.3831C29.043 21.0069 28.5922 20.7834 28.1071 20.7339V9.20087C28.1071 7.78454 26.9548 6.63227 25.5385 6.63227H24.3522V2.88108C24.3522 1.84381 23.5079 1 22.4711 1H9.3365C8.29969 1 7.45542 1.84381 7.45542 2.88108V6.63227H6.26917C4.85284 6.63227 3.70057 7.78454 3.70057 9.20087V20.7338C3.21544 20.7833 2.76468 21.0069 2.44561 21.383C2.08439 21.8093 1.93044 22.3694 2.02938 22.9593L2.49236 25.1631C2.75088 26.392 3.85001 27.2839 5.10676 27.2839H26.7009C27.9577 27.2839 29.0569 26.392 29.3154 25.1626L29.7857 22.9203C29.8772 22.3694 29.7233 21.8094 29.362 21.3831ZM25.5385 8.50969C25.9198 8.50969 26.2296 8.81956 26.2296 9.20087V20.7129H24.3522V8.50969H25.5385ZM22.4748 2.88108V20.7129H9.33284L9.3365 2.87742L22.4748 2.88108ZM6.26917 8.50969H7.45542V20.7129H5.57799V9.20087C5.57799 8.81956 5.88786 8.50969 6.26917 8.50969ZM27.4782 24.7763C27.4012 25.1416 27.0749 25.4065 26.7009 25.4065H5.10676C4.73278 25.4065 4.40639 25.1416 4.32941 24.7767L3.89216 22.5904C11.9085 22.5847 19.9248 22.5791 27.9411 22.5734L27.4782 24.7763Z" fill="white"/>
<path d="M12.1487 14.1421H14.9648C15.4836 14.1421 15.9035 13.7217 15.9035 13.2034C15.9035 12.685 15.4836 12.2646 14.9648 12.2646H12.1487C11.6298 12.2646 11.21 12.685 11.21 13.2034C11.21 13.7217 11.6298 14.1421 12.1487 14.1421Z" fill="white"/>
<path d="M12.1487 10.3869H19.6584C20.1772 10.3869 20.5971 9.96659 20.5971 9.44823C20.5971 8.92988 20.1772 8.50952 19.6584 8.50952H12.1487C11.6298 8.50952 11.21 8.92988 11.21 9.44823C11.21 9.96659 11.6298 10.3869 12.1487 10.3869Z" fill="white"/>
<path d="M12.1487 6.63231H19.6584C20.1772 6.63231 20.5971 6.21195 20.5971 5.69359C20.5971 5.17524 20.1772 4.75488 19.6584 4.75488H12.1487C11.6298 4.75488 11.21 5.17524 11.21 5.69359C11.21 6.21195 11.6298 6.63231 12.1487 6.63231Z" fill="white"/>
</svg>
