<svg width="29" height="29" viewBox="0 0 29 29" fill="none" xmlns="http://www.w3.org/2000/svg">
<path d="M2.4165 26.5834C2.4165 24.0197 3.43495 21.5608 5.24781 19.748C7.06066 17.9352 9.51941 16.9167 12.0832 16.9167C14.6469 16.9167 17.1057 17.9352 18.9186 19.748C20.7313 21.5608 21.7498 24.0197 21.7498 26.5834H19.3332C19.3332 24.6606 18.5694 22.8165 17.2096 21.4569C15.85 20.0972 14.006 19.3334 12.0832 19.3334C10.1603 19.3334 8.31629 20.0972 6.95665 21.4569C5.59701 22.8165 4.83317 24.6606 4.83317 26.5834H2.4165ZM12.0832 15.7084C8.07755 15.7084 4.83317 12.464 4.83317 8.45837C4.83317 4.45275 8.07755 1.20837 12.0832 1.20837C16.0888 1.20837 19.3332 4.45275 19.3332 8.45837C19.3332 12.464 16.0888 15.7084 12.0832 15.7084ZM12.0832 13.2917C14.7536 13.2917 16.9165 11.1288 16.9165 8.45837C16.9165 5.78796 14.7536 3.62504 12.0832 3.62504C9.41275 3.62504 7.24984 5.78796 7.24984 8.45837C7.24984 11.1288 9.41275 13.2917 12.0832 13.2917ZM22.093 17.7662C23.7911 18.5309 25.2323 19.7698 26.2431 21.334C27.254 22.8982 27.7917 24.721 27.7915 26.5834H25.3748C25.3751 25.1865 24.972 23.8193 24.2138 22.6461C23.4555 21.473 22.3747 20.5438 21.101 19.9702L22.0918 17.7662H22.093ZM21.2617 4.12408C22.4791 4.6259 23.52 5.47807 24.2523 6.57244C24.9847 7.66682 25.3753 8.95408 25.3748 10.2709C25.3753 11.9291 24.7558 13.5276 23.6379 14.7523C22.52 15.9771 20.9846 16.7397 19.3332 16.8901V14.4577C20.2284 14.3295 21.059 13.9176 21.7031 13.2826C22.3471 12.6475 22.7705 11.8228 22.9113 10.9293C23.0519 10.0359 22.9026 9.1209 22.485 8.31863C22.0674 7.51637 21.4035 6.86911 20.591 6.47187L21.2617 4.12408Z" fill="white"/>
</svg>
