<svg width="26" height="26" viewBox="0 0 26 26" fill="none" xmlns="http://www.w3.org/2000/svg">
<g clip-path="url(#clip0_167_12377)">
<path d="M18.0781 5.07812C18.0781 2.27805 15.8001 0 13 0C10.1999 0 7.92188 2.27805 7.92188 5.07812C7.92188 7.8782 10.1999 10.1562 13 10.1562C15.8001 10.1562 18.0781 7.8782 18.0781 5.07812ZM9.95312 5.07812C9.95312 3.39808 11.32 2.03125 13 2.03125C14.68 2.03125 16.0469 3.39808 16.0469 5.07812C16.0469 6.75817 14.68 8.125 13 8.125C11.32 8.125 9.95312 6.75817 9.95312 5.07812Z" fill="white"/>
<path d="M2.03125 16.8591V16.8594C2.03125 17.4203 2.48595 17.8749 3.04688 17.8749C3.6078 17.8749 4.0625 17.4201 4.0625 16.8592C4.0625 16.2993 4.51811 15.8438 5.07812 15.8438H11.9844V16.8594C11.9844 17.4203 12.4391 17.875 13 17.875C13.5609 17.875 14.0156 17.4203 14.0156 16.8594V15.8438H20.9219C21.4819 15.8438 21.9375 16.2992 21.9375 16.8594C21.9375 17.4203 22.3922 17.8748 22.9531 17.8748C23.5141 17.8748 23.9688 17.42 23.9688 16.8591C23.9688 15.1792 22.6019 13.8125 20.9219 13.8125H14.0156V12.7969C14.0156 12.2359 13.5609 11.7812 13 11.7812C12.4391 11.7812 11.9844 12.2359 11.9844 12.7969V13.8125H5.07812C3.39808 13.8125 2.03125 15.1792 2.03125 16.8591Z" fill="white"/>
<path d="M3.04688 19.9062C1.36683 19.9062 0 21.2731 0 22.9531C0 24.6332 1.36683 26 3.04688 26C4.72692 26 6.09375 24.6332 6.09375 22.9531C6.09375 21.2731 4.72692 19.9062 3.04688 19.9062ZM3.04688 23.9688C2.48686 23.9688 2.03125 23.5131 2.03125 22.9531C2.03125 22.3931 2.48686 21.9375 3.04688 21.9375C3.60689 21.9375 4.0625 22.3931 4.0625 22.9531C4.0625 23.5131 3.60689 23.9688 3.04688 23.9688Z" fill="white"/>
<path d="M13 19.9062C11.32 19.9062 9.95312 21.2731 9.95312 22.9531C9.95312 24.6332 11.32 26 13 26C14.68 26 16.0469 24.6332 16.0469 22.9531C16.0469 21.2731 14.68 19.9062 13 19.9062ZM13 23.9688C12.44 23.9688 11.9844 23.5131 11.9844 22.9531C11.9844 22.3931 12.44 21.9375 13 21.9375C13.56 21.9375 14.0156 22.3931 14.0156 22.9531C14.0156 23.5131 13.56 23.9688 13 23.9688Z" fill="white"/>
<path d="M22.9531 19.9062C21.2731 19.9062 19.9062 21.2731 19.9062 22.9531C19.9062 24.6332 21.2731 26 22.9531 26C24.6332 26 26 24.6332 26 22.9531C26 21.2731 24.6332 19.9062 22.9531 19.9062ZM22.9531 23.9688C22.3931 23.9688 21.9375 23.5131 21.9375 22.9531C21.9375 22.3931 22.3931 21.9375 22.9531 21.9375C23.5131 21.9375 23.9688 22.3931 23.9688 22.9531C23.9688 23.5131 23.5131 23.9688 22.9531 23.9688Z" fill="white"/>
</g>
<defs>
<clipPath id="clip0_167_12377">
<rect width="26" height="26" fill="white"/>
</clipPath>
</defs>
</svg>
