<svg width="31" height="31" viewBox="0 0 31 31" fill="none" xmlns="http://www.w3.org/2000/svg">
<path d="M27 25.166H23.7502V31H21.547V25.166H20.3419V22.9004H24.6235L23.01 13.0468C22.9064 12.5199 22.454 12.1387 21.9303 12.1387H19.1986C18.7989 11.37 18.2318 10.7067 17.5477 10.2005C17.9787 9.99012 18.4586 9.87305 18.9604 9.87305H21.9303C23.5121 9.87305 24.877 11.0324 25.1757 12.6297L25.1802 12.6555L27 23.7686V25.166ZM9.71129 9.87305H5.30484C3.48255 9.87305 2 11.3976 2 13.2715V22.7871H4.20323V31H6.40645V20.5215H4.20323V13.2715C4.20323 12.6469 4.69741 12.1387 5.30484 12.1387H9.47753C9.87703 11.3705 10.4436 10.7075 11.1272 10.2014C10.6978 9.99114 10.2178 9.87305 9.71129 9.87305ZM4.20323 5.39844C4.20323 3.52454 5.68578 2 7.50806 2C9.33035 2 10.8129 3.52454 10.8129 5.39844C10.8129 7.27234 9.33035 8.79688 7.50806 8.79688C5.68578 8.79688 4.20323 7.27234 4.20323 5.39844ZM6.40645 5.39844C6.40645 6.02307 6.90063 6.53125 7.50806 6.53125C8.11549 6.53125 8.60968 6.02307 8.60968 5.39844C8.60968 4.7738 8.11549 4.26562 7.50806 4.26562C6.90063 4.26562 6.40645 4.7738 6.40645 5.39844ZM17.1406 5.39844C17.1406 3.52454 18.6231 2 20.4454 2C22.2677 2 23.7502 3.52454 23.7502 5.39844C23.7502 7.27234 22.2677 8.79688 20.4454 8.79688C18.6231 8.79688 17.1406 7.27234 17.1406 5.39844ZM19.3438 5.39844C19.3438 6.02307 19.838 6.53125 20.4454 6.53125C21.0528 6.53125 21.547 6.02307 21.547 5.39844C21.547 4.7738 21.0528 4.26562 20.4454 4.26562C19.838 4.26562 19.3438 4.7738 19.3438 5.39844ZM11.0332 14.8008C11.0332 12.9269 12.5158 11.4023 14.3381 11.4023C16.1604 11.4023 17.6429 12.9269 17.6429 14.8008C17.6429 16.6747 16.1604 18.1992 14.3381 18.1992C12.5158 18.1992 11.0332 16.6747 11.0332 14.8008ZM13.2365 14.8008C13.2365 15.4254 13.7306 15.9336 14.3381 15.9336C14.9455 15.9336 15.4397 15.4254 15.4397 14.8008C15.4397 14.1761 14.9455 13.668 14.3381 13.668C13.7306 13.668 13.2365 14.1761 13.2365 14.8008ZM18.1386 22.0508V31H15.9354V28.2812H12.6856V31H10.4824V22.0508C10.4824 20.4892 11.7179 19.2188 13.2365 19.2188H15.3846C16.9032 19.2188 18.1386 20.4892 18.1386 22.0508ZM15.9354 26.0156V22.0508C15.9354 21.7385 15.6883 21.4844 15.3846 21.4844H13.2365C12.9327 21.4844 12.6856 21.7385 12.6856 22.0508V26.0156H15.9354Z" fill="white"/>
</svg>
