<svg width="107" height="107" viewBox="0 0 107 107" fill="none" xmlns="http://www.w3.org/2000/svg">
<path d="M42.9163 77.3125L74.6663 53.5L42.9163 29.6875V77.3125ZM53.4997 0.583374C24.2897 0.583374 0.583008 24.29 0.583008 53.5C0.583008 82.71 24.2897 106.417 53.4997 106.417C82.7097 106.417 106.416 82.71 106.416 53.5C106.416 24.29 82.7097 0.583374 53.4997 0.583374ZM53.4997 95.8334C30.1634 95.8334 11.1663 76.8363 11.1663 53.5C11.1663 30.1638 30.1634 11.1667 53.4997 11.1667C76.8359 11.1667 95.833 30.1638 95.833 53.5C95.833 76.8363 76.8359 95.8334 53.4997 95.8334Z" fill="white"/>
</svg>
