<svg width="30" height="30" viewBox="0 0 30 30" fill="none" xmlns="http://www.w3.org/2000/svg">
<path d="M25.3125 22.725L24.975 21.3656C22.8221 24.8413 19.0851 27.0224 15 27.1875C8.78678 27.1875 3.75 22.1507 3.75 15.9375H5.625C5.625 21.1152 9.8223 25.3125 15 25.3125C18.5408 25.1573 21.7606 23.2155 23.55 20.1562L21.7875 20.625L21.3375 18.75L25.0875 17.8125C25.5896 17.6886 26.0972 17.9949 26.2219 18.4969L27.1594 22.2469L25.3125 22.725ZM4.9125 12.1875L8.6625 11.25L8.2125 9.375L6.45 9.81563C8.24619 6.76717 11.4649 4.83668 15 4.6875C20.1777 4.6875 24.375 8.8848 24.375 14.0625H26.25C26.25 7.84928 21.2132 2.8125 15 2.8125C10.9048 2.96842 7.15529 5.15068 4.99687 8.63438L4.6875 7.275L2.8125 7.725L3.75 11.475C3.77127 11.5471 3.87357 11.8641 4.20475 12.0615C4.52232 12.2508 4.83521 12.2019 4.9125 12.1875Z" fill="white"/>
</svg>
