<svg width="27" height="27" viewBox="0 0 27 27" fill="none" xmlns="http://www.w3.org/2000/svg">
<path d="M15.6094 2.10938H14.5547V1.05469C14.5547 0.472184 14.0825 0 13.5 0C12.9175 0 12.4453 0.472184 12.4453 1.05469V2.10938H11.3906C10.8081 2.10938 10.3359 2.58156 10.3359 3.16406C10.3359 3.74657 10.8081 4.21875 11.3906 4.21875H15.6094C16.1919 4.21875 16.6641 3.74657 16.6641 3.16406C16.6641 2.58156 16.1919 2.10938 15.6094 2.10938Z" fill="white"/>
<path d="M19.8281 16.6641H13.5C12.9175 16.6641 12.4453 16.1919 12.4453 15.6094C12.4453 15.0269 12.9175 14.5547 13.5 14.5547H19.8281C20.4106 14.5547 20.8828 15.0269 20.8828 15.6094C20.8828 16.1919 20.4106 16.6641 19.8281 16.6641Z" fill="white"/>
<path d="M19.8281 22.9922H13.5C12.9175 22.9922 12.4453 22.52 12.4453 21.9375C12.4453 21.355 12.9175 20.8828 13.5 20.8828H19.8281C20.4106 20.8828 20.8828 21.355 20.8828 21.9375C20.8828 22.52 20.4106 22.9922 19.8281 22.9922Z" fill="white"/>
<path d="M8.22659 16.6641C7.95669 16.6641 7.68675 16.5611 7.48077 16.3552L6.42608 15.3005C6.01422 14.8886 6.01422 14.2208 6.42608 13.8089C6.83799 13.397 7.50582 13.397 7.91767 13.8089L8.22654 14.1178L9.59009 12.7542C10.002 12.3423 10.6698 12.3423 11.0817 12.7542C11.4935 13.1661 11.4935 13.8339 11.0817 14.2458L8.97231 16.3552C8.76643 16.5611 8.49648 16.6641 8.22659 16.6641Z" fill="white"/>
<path d="M19.8281 10.3359H13.5C12.9175 10.3359 12.4453 9.86375 12.4453 9.28125C12.4453 8.69875 12.9175 8.22656 13.5 8.22656H19.8281C20.4106 8.22656 20.8828 8.69875 20.8828 9.28125C20.8828 9.86375 20.4106 10.3359 19.8281 10.3359Z" fill="white"/>
<path d="M8.22659 10.336C7.95669 10.336 7.68675 10.233 7.48077 10.027L6.42608 8.97235C6.01422 8.56049 6.01422 7.89266 6.42608 7.48081C6.83799 7.0689 7.50582 7.0689 7.91767 7.48081L8.22654 7.78972L9.59009 6.42612C10.002 6.01421 10.6698 6.01421 11.0817 6.42612C11.4935 6.83797 11.4935 7.5058 11.0817 7.91766L8.97231 10.027C8.76643 10.233 8.49648 10.336 8.22659 10.336Z" fill="white"/>
<path d="M8.22659 22.9922C7.95669 22.9922 7.68675 22.8892 7.48077 22.6833L6.42608 21.6286C6.01422 21.2167 6.01422 20.5489 6.42608 20.1371C6.83799 19.7251 7.50582 19.7251 7.91767 20.1371L8.22654 20.446L9.59009 19.0824C10.002 18.6705 10.6698 18.6705 11.0817 19.0824C11.4935 19.4942 11.4935 20.1621 11.0817 20.5739L8.97231 22.6833C8.76643 22.8892 8.49648 22.9922 8.22659 22.9922Z" fill="white"/>
<path d="M21.9375 2.10938H19.8281C19.2456 2.10938 18.7734 2.58156 18.7734 3.16406C18.7734 3.74657 19.2456 4.21875 19.8281 4.21875H21.9375C22.5191 4.21875 22.9922 4.69188 22.9922 5.27344V23.8359C22.9922 24.4175 22.5191 24.8906 21.9375 24.8906H5.0625C4.48095 24.8906 4.00781 24.4175 4.00781 23.8359V5.27344C4.00781 4.69188 4.48095 4.21875 5.0625 4.21875H7.17188C7.75438 4.21875 8.22656 3.74657 8.22656 3.16406C8.22656 2.58156 7.75438 2.10938 7.17188 2.10938H5.0625C3.31784 2.10938 1.89844 3.52877 1.89844 5.27344V23.8359C1.89844 25.5806 3.31784 27 5.0625 27H21.9375C23.6822 27 25.1016 25.5806 25.1016 23.8359V5.27344C25.1016 3.52877 23.6822 2.10938 21.9375 2.10938Z" fill="white"/>
</svg>
