<svg width="37" height="30" viewBox="0 0 37 30" fill="none" xmlns="http://www.w3.org/2000/svg">
<path d="M27.6511 29.3005H8.48902C3.82756 29.3005 0.0351562 25.5081 0.0351562 20.8466V9.29304C0.0351562 4.63158 3.82756 0.839172 8.48902 0.839172H27.6511C32.3126 0.839172 36.105 4.63158 36.105 9.29304V20.8466C36.105 25.5081 32.3126 29.3005 27.6511 29.3005ZM8.48902 3.65713C5.38138 3.65713 2.85311 6.1854 2.85311 9.29304V20.8466C2.85311 23.9543 5.38138 26.4826 8.48902 26.4826H27.6511C30.7587 26.4826 33.287 23.9543 33.287 20.8466V9.29304C33.287 6.1854 30.7587 3.65713 27.6511 3.65713H8.48902ZM23.233 17.5642L30.1972 12.2444C30.8156 11.7721 30.934 10.8879 30.4616 10.2695C29.9892 9.65106 29.105 9.5327 28.4866 10.0051L21.5233 15.3242C19.5126 16.8578 16.7046 16.8589 14.6925 15.328L7.94487 10.0828C7.33049 9.60512 6.44523 9.71608 5.96773 10.3305C5.49015 10.9448 5.60104 11.83 6.21542 12.3076L12.9683 17.5569C12.9717 17.5596 12.9751 17.5622 12.9786 17.5648C14.4879 18.7159 16.2963 19.2914 18.1051 19.2914C19.914 19.2914 21.7232 18.7156 23.233 17.5642Z" fill="white"/>
</svg>
