<svg width="26" height="26" viewBox="0 0 26 26" fill="none" xmlns="http://www.w3.org/2000/svg">
<g clip-path="url(#clip0_167_12458)">
<path d="M25.2383 7.31226H12.9495C12.7475 7.31226 12.5537 7.39259 12.4109 7.53542C12.2681 7.67824 12.1877 7.87204 12.1877 8.07397V8.83569H10.6643V8.07397C10.6643 7.65344 10.3233 7.31226 9.90258 7.31226H8.65031C8.65011 7.31226 8.65051 7.31226 8.65031 7.31226C4.33688 7.31226 0.653853 10.3992 0.0841509 14.4918C-0.193956 16.4898 0.223601 18.4445 1.2428 20.0887C0.474928 20.6501 0.000441251 21.5508 0.000441251 22.5464C0.000441251 24.2264 1.36737 25.5933 3.04731 25.5933C4.32002 25.5933 5.41796 24.8106 5.87162 23.691C6.67321 23.9413 7.51428 24.0703 8.3724 24.0703C8.88973 24.0703 9.41341 24.0236 9.93809 23.9286C11.6113 23.6259 13.1413 22.8071 14.3624 21.5608C15.5823 20.316 16.3712 18.7704 16.644 17.0914C16.6486 17.0634 16.6529 17.0357 16.6573 17.0073C16.904 15.392 18.0807 14.1947 19.5839 14.0277L25.321 13.4014C25.7074 13.3594 26 13.0329 26 12.6443V8.07397C26 7.65344 25.659 7.31226 25.2383 7.31226ZM3.04731 24.0699C2.20724 24.0699 1.52388 23.3865 1.52388 22.5464C1.52388 22.0418 1.76747 21.5857 2.16063 21.3061C2.29393 21.453 2.43219 21.5967 2.57719 21.7357C3.15066 22.2864 3.78602 22.744 4.46542 23.1042C4.24226 23.6717 3.68922 24.0699 3.04731 24.0699ZM19.4171 12.5134C18.3196 12.6354 17.3289 13.1217 16.5519 13.92C15.8039 14.6888 15.3195 15.6769 15.1515 16.7766C15.1479 16.7998 15.1442 16.823 15.1404 16.8466C14.6877 19.6327 12.4371 21.9283 9.66692 22.4296C8.27937 22.6805 6.90312 22.5218 5.67385 21.994C5.64787 21.9809 5.62129 21.9686 5.59372 21.9585C4.8796 21.6407 4.21647 21.1979 3.63209 20.6368C3.39207 20.4065 3.17189 20.1619 2.97114 19.9056C2.96103 19.8925 2.95091 19.8792 2.9402 19.8667C1.81845 18.4137 1.33146 16.5814 1.59291 14.7019C2.05847 11.3577 5.09245 8.83569 8.65031 8.83569H9.14086V9.59741C9.14086 10.0181 9.48205 10.3591 9.90258 10.3591H12.9495C13.3702 10.3591 13.7112 10.0181 13.7112 9.59741V8.83569H21.3282V12.3049L19.4171 12.5134ZM24.4766 11.9611L22.8516 12.1385V8.83569H24.4766V11.9611Z" fill="white"/>
<path d="M11.4258 4.26562C11.8465 4.26562 12.1875 3.92444 12.1875 3.5039V1.21875C12.1875 0.798019 11.8465 0.457031 11.4258 0.457031C11.0052 0.457031 10.6641 0.798019 10.6641 1.21875V3.5039C10.6641 3.92444 11.0052 4.26562 11.4258 4.26562Z" fill="white"/>
<path d="M14.4727 5.78906C14.6676 5.78906 14.8624 5.71467 15.0112 5.5659L16.5347 4.04246C16.8322 3.74492 16.8322 3.2627 16.5347 2.96535C16.2373 2.6678 15.7549 2.6678 15.4573 2.96535L13.9341 4.48878C13.6366 4.78613 13.6366 5.26836 13.9341 5.5659C14.0827 5.71448 14.2777 5.78906 14.4727 5.78906Z" fill="white"/>
<path d="M7.84035 5.5659C7.98912 5.71467 8.18411 5.78906 8.37891 5.78906C8.5739 5.78906 8.76889 5.71467 8.91746 5.5659C9.21501 5.26836 9.21501 4.78613 8.91746 4.48878L7.39423 2.96535C7.09668 2.6678 6.61446 2.6678 6.31691 2.96535C6.01936 3.2627 6.01936 3.74492 6.31691 4.04246L7.84035 5.5659Z" fill="white"/>
<path d="M8.37939 11.8826C6.27931 11.8826 4.5708 13.5911 4.5708 15.6912C4.5708 17.791 6.27931 19.4996 8.37939 19.4996C10.4793 19.4996 12.1878 17.791 12.1878 15.6912C12.1878 13.5911 10.4793 11.8826 8.37939 11.8826ZM8.37939 17.9761C7.11938 17.9761 6.09424 16.9512 6.09424 15.6912C6.09424 14.4312 7.11938 13.406 8.37939 13.406C9.6394 13.406 10.6643 14.4312 10.6643 15.6912C10.6643 16.9512 9.6394 17.9761 8.37939 17.9761Z" fill="white"/>
</g>
<defs>
<clipPath id="clip0_167_12458">
<rect width="26" height="26" fill="white"/>
</clipPath>
</defs>
</svg>
