<?xml version="1.0" encoding="UTF-8"?>
<svg enable-background="new 0 0 512 512" version="1.1" viewBox="0 0 512 512" xml:space="preserve" xmlns="http://www.w3.org/2000/svg">
		<path d="m304 96h-192c-8.832 0-16 7.168-16 16s7.168 16 16 16h192c8.832 0 16-7.168 16-16s-7.168-16-16-16z"/>
		<path d="m240 160h-128c-8.832 0-16 7.168-16 16s7.168 16 16 16h128c8.832 0 16-7.168 16-16s-7.168-16-16-16z"/>
		<path d="M352,0H64C28.704,0,0,28.704,0,64v320c0,6.208,3.584,11.872,9.216,14.496C11.36,399.488,13.696,400,16,400    c3.68,0,7.328-1.28,10.24-3.712L117.792,320H352c35.296,0,64-28.704,64-64V64C416,28.704,387.296,0,352,0z M384,256    c0,17.632-14.336,32-32,32H112c-3.744,0-7.36,1.312-10.24,3.712L32,349.856V64c0-17.632,14.336-32,32-32h288    c17.664,0,32,14.368,32,32V256z"/>
		<path d="m448 128c-8.832 0-16 7.168-16 16s7.168 16 16 16c17.664 0 32 14.368 32 32v270.69l-54.016-43.2c-2.816-2.24-6.368-3.488-9.984-3.488h-224c-17.664 0-32-14.368-32-32v-16c0-8.832-7.168-16-16-16s-16 7.168-16 16v16c0 35.296 28.704 64 64 64h218.37l75.616 60.512c2.912 2.304 6.464 3.488 10.016 3.488 2.336 0 4.704-0.512 6.944-1.568 5.536-2.688 9.056-8.288 9.056-14.432v-304c0-35.296-28.704-64-64-64z"/>
</svg>
