<svg id="Layer_1" enable-background="new 0 0 512 512" height="512" viewBox="0 0 512 512" width="512" xmlns="http://www.w3.org/2000/svg"><path d="m482.94 409h-59v103h-40v-103h-21.88v-40h77.735l-29.294-173.967c-1.881-9.302-10.094-16.033-19.602-16.033h-49.595c-7.257-13.571-17.552-25.282-29.973-34.219 7.826-3.714 16.538-5.781 25.649-5.781h53.919c28.717 0 53.497 20.469 58.92 48.669l.083.456 33.038 196.203zm-313.88-270h-80c-33.084 0-60 26.916-60 60v168h40v145h40v-185h-40v-128c0-11.028 8.972-20 20-20h75.756c7.253-13.563 17.54-25.268 29.95-34.203-7.796-3.712-16.511-5.797-25.706-5.797zm-100-79c0-33.084 26.916-60 60-60s60 26.916 60 60-26.916 60-60 60-60-26.916-60-60zm40 0c0 11.028 8.972 20 20 20s20-8.972 20-20-8.972-20-20-20-20 8.972-20 20zm194.88 0c0-33.084 26.916-60 60-60s60 26.916 60 60-26.916 60-60 60-60-26.916-60-60zm40 0c0 11.028 8.972 20 20 20s20-8.972 20-20-8.972-20-20-20-20 8.972-20 20zm-150.88 166c0-33.084 26.916-60 60-60s60 26.916 60 60-26.916 60-60 60-60-26.916-60-60zm40 0c0 11.028 8.972 20 20 20s20-8.972 20-20-8.972-20-20-20-20 8.972-20 20zm89 128v158h-40v-48h-59v48h-40v-158c0-27.57 22.43-50 50-50h39c27.57 0 50 22.43 50 50zm-40 70v-70c0-5.514-4.486-10-10-10h-39c-5.514 0-10 4.486-10 10v70z"/></svg>