<svg width="17" height="17" viewBox="0 0 17 17" fill="none" xmlns="http://www.w3.org/2000/svg">
<path d="M12.8563 10.8626C12.3622 11.7791 11.5924 12.517 10.6559 12.972C9.71933 13.4269 8.66345 13.5759 7.63759 13.3979C6.61174 13.2198 5.66782 12.7238 4.93937 11.9798C4.21092 11.2359 3.73481 10.2817 3.57838 9.25236C3.42196 8.22298 3.59313 7.17048 4.0677 6.24372C4.54227 5.31697 5.29621 4.56289 6.22287 4.08813C7.14953 3.61338 8.202 3.44199 9.23141 3.59821C10.2608 3.75443 11.2151 4.23036 11.9591 4.95866H9.91673C9.72886 4.95866 9.5487 5.03329 9.41586 5.16613C9.28302 5.29896 9.20839 5.47913 9.20839 5.66699C9.20839 5.85485 9.28302 6.03502 9.41586 6.16786C9.5487 6.3007 9.72886 6.37533 9.91673 6.37533H13.4584C13.4684 6.37533 13.4767 6.37008 13.4867 6.36966L13.493 6.36838C13.6739 6.36043 13.8448 6.28314 13.9703 6.15254C14.0957 6.02195 14.1661 5.84807 14.1667 5.66699V2.12533C14.1667 1.93746 14.0921 1.7573 13.9593 1.62446C13.8264 1.49162 13.6463 1.41699 13.4584 1.41699C13.2705 1.41699 13.0904 1.49162 12.9575 1.62446C12.8247 1.7573 12.7501 1.93746 12.7501 2.12533V3.77284C11.7651 2.89039 10.5298 2.33672 9.21564 2.18879C7.90152 2.04086 6.57396 2.30602 5.4175 2.94742C4.26104 3.58882 3.33314 4.57458 2.76278 5.76768C2.19242 6.96078 2.00795 8.30193 2.235 9.60471C2.46205 10.9075 3.08935 12.1072 4.02969 13.037C4.97004 13.9668 6.1767 14.5805 7.48196 14.7929C8.78722 15.0053 10.1262 14.8057 11.3128 14.2219C12.4994 13.6382 13.4746 12.6992 14.103 11.5356C14.1922 11.3703 14.2121 11.1763 14.1583 10.9963C14.1046 10.8163 13.9815 10.665 13.8161 10.5758C13.6508 10.4865 13.4568 10.4666 13.2768 10.5204C13.0968 10.5742 12.9456 10.6973 12.8563 10.8626Z" fill="#ED1D25"/>
</svg>
