<?xml version="1.0" encoding="UTF-8"?>
<svg xmlns="http://www.w3.org/2000/svg" id="Layer_5" data-name="Layer 5" viewBox="0 0 24 24" fill="#ACACAC" width="512" height="512"><path d="M14,23H10a3.0056,3.0056,0,0,1-2.9463-2.4321,3.0024,3.0024,0,0,1-3.58-1.336l-2-3.4638A3.0055,3.0055,0,0,1,2.1079,12a3.0057,3.0057,0,0,1-.6343-3.7681l2-3.4638a3.0012,3.0012,0,0,1,3.58-1.3355A3.0053,3.0053,0,0,1,10,1h4a3.0056,3.0056,0,0,1,2.9463,2.4321,3.0024,3.0024,0,0,1,3.58,1.336l2,3.4638A3.0055,3.0055,0,0,1,21.8921,12a3.0055,3.0055,0,0,1,.6343,3.7681l-2,3.4638a3.0012,3.0012,0,0,1-3.58,1.3355A3.0053,3.0053,0,0,1,14,23ZM7.3813,18.3818a1.6223,1.6223,0,0,1,.81.2163A1.6031,1.6031,0,0,1,9,20a1.0013,1.0013,0,0,0,1,1h4a1.0013,1.0013,0,0,0,1-1,1.6031,1.6031,0,0,1,.8086-1.4019,1.6224,1.6224,0,0,1,1.6191,0,1,1,0,0,0,1.3662-.3658l2-3.4638a1,1,0,0,0-.3657-1.3658h0a1.6188,1.6188,0,0,1,0-2.8042,1.0012,1.0012,0,0,0,.3652-1.3662l-2-3.4638a.9994.9994,0,0,0-1.3652-.3662,1.6245,1.6245,0,0,1-1.62,0A1.6031,1.6031,0,0,1,15,4a1.0013,1.0013,0,0,0-1-1H10A1.0013,1.0013,0,0,0,9,4a1.6031,1.6031,0,0,1-.8086,1.4019,1.627,1.627,0,0,1-1.6191,0,1,1,0,0,0-1.3662.3658l-2,3.4638a1,1,0,0,0,.3657,1.3658,1.6188,1.6188,0,0,1-.0005,2.8042,1.0012,1.0012,0,0,0-.3652,1.3662l2,3.4638a.9912.9912,0,0,0,.6069.4659.98.98,0,0,0,.7583-.1A1.6236,1.6236,0,0,1,7.3813,18.3818Zm14.0464-6.7124,0,.0005.0152.0093Z"/><path d="M12,17a5,5,0,1,1,5-5A5.0059,5.0059,0,0,1,12,17Zm0-8a3,3,0,1,0,3,3A3.0033,3.0033,0,0,0,12,9Z" /></svg>
