<?xml version="1.0"?>
<svg xmlns="http://www.w3.org/2000/svg" xmlns:xlink="http://www.w3.org/1999/xlink" xmlns:svgjs="http://svgjs.com/svgjs" version="1.1" width="512" height="512" x="0" y="0" viewBox="0 0 128 128" style="enable-background:new 0 0 512 512" xml:space="preserve" class=""><g><path xmlns="http://www.w3.org/2000/svg" id="Edit" d="m120 60v40c0 11.027-8.973 20-20 20h-72c-11.027 0-20-8.973-20-20v-72c0-11.027 8.973-20 20-20h40c2.209 0 4 1.791 4 4s-1.791 4-4 4h-40c-6.617 0-12 5.383-12 12v72c0 6.617 5.383 12 12 12h72c6.617 0 12-5.383 12-12v-40c0-2.209 1.791-4 4-4s4 1.791 4 4zm-82.828 5.172 56-56c1.563-1.563 4.094-1.563 5.656 0l20 20c1.563 1.563 1.563 4.094 0 5.656l-56 56c-.75.75-1.767 1.172-2.828 1.172h-20c-2.209 0-4-1.791-4-4v-20c0-1.061.422-2.078 1.172-2.828zm52.484-41.172 14.344 14.344 6.344-6.344-14.344-14.344zm-45.656 60h14.344l40-40-14.344-14.344-40 40z" fill="#3c3c3c" data-original="#000000"/></g></svg>
