<?xml version="1.0"?>
<svg xmlns="http://www.w3.org/2000/svg" xmlns:xlink="http://www.w3.org/1999/xlink" xmlns:svgjs="http://svgjs.com/svgjs" version="1.1" width="512" height="512" x="0" y="0" viewBox="0 0 6.3499999 6.3500002" style="enable-background:new 0 0 512 512" xml:space="preserve"><g><g xmlns="http://www.w3.org/2000/svg" id="layer1" transform="translate(0 -290.65)"><path id="rect841" d="m12.003906.99804688c-2.1972942 0-4.0019529 1.80464922-4.0019529 4.00195312 0 .9395037.3432932 1.7951024.8925781 2.4804688-1.44614.6781439-2.5207647 2.0198464-2.8105468 3.6367192-1.7601369.418662-3.0878906 2.002933-3.0878906 3.884765 0 .941295.3453311 1.798407.8964843 2.484375-1.7025861.79918-2.89648435 2.516341-2.89648435 4.513672.0289264 1.304086 1.97107375 1.304086 2.00000005 0 0-1.67932 1.3265544-2.998047 3.0058593-2.998047h2c1.6793051 0 2.9960939 1.318727 2.9960939 2.998047 0 1.334635 2.001953 1.334635 2.001953 0 0-1.67932 1.316789-2.998047 2.996094-2.998047h2c1.679304 0 3.005859 1.318727 3.005859 2.998047 0 1.333644 2 1.333644 2 0 0-1.997331-1.193898-3.714492-2.896484-4.513672.551153-.685968.896484-1.54308.896484-2.484375 0-1.881832-1.327754-3.466103-3.087891-3.884765-.289641-1.6160863-1.363521-2.9562975-2.808593-3.6347661.548771-.6857014.890625-1.5419359.890625-2.4824219 0-2.1973039-1.794893-4.00195312-3.992188-4.00195312zm0 2.00000002c1.116415 0 2 .8855185 2 2.0019531 0 1.1163968-.883585 2-2 2-1.116414 0-2.001953-.8836032-2.001953-2 0-1.1164346.885539-2.0019531 2.001953-2.0019531zm-1.005859 6.0019531h2.001953c1.394096 0 2.526312.9143438 2.875 2.183594-1.651569.492803-2.875 2.014108-2.875 3.818359 0 .940314.342458 1.796787.892578 2.482422-.749027.356386-1.400421.888374-1.892578 1.548828-.492529-.661294-1.144251-1.19449-1.894531-1.550781.549555-.685452.892578-1.540692.892578-2.480469 0-1.803881-1.2219966-3.325228-2.873047-3.818359.348752-1.2691473 1.4790233-2.183594 2.873047-2.183594zm-4.0000001 4.001953c1.1164142 0 2 .883603 2 2 0 1.116435-.8835858 2-2 2-1.1164143 0-2-.883565-2-2 0-1.116397.8835857-2 2-2zm10.0019531 0c1.116414 0 2.001953.883603 2.001953 2 0 1.116435-.885539 2-2.001953 2s-2-.883565-2-2c0-1.116397.883586-2 2-2z" fill-rule="evenodd" transform="matrix(.265 0 0 .265 0 290.65)" font-variant-ligatures="normal" font-variant-position="normal" font-variant-caps="normal" font-variant-numeric="normal" font-variant-alternates="normal" font-feature-settings="normal" text-indent="0" text-align="start" text-decoration-line="none" text-decoration-style="solid" text-decoration-color="rgb(0,0,0)" text-transform="none" text-orientation="mixed" white-space="normal" shape-padding="0" isolation="auto" mix-blend-mode="normal" solid-color="rgb(0,0,0)" solid-opacity="1" vector-effect="none" paint-order="stroke fill markers" fill="#3c3c3c" data-original="#000000"/></g></g></svg>
