<?xml version="1.0"?>
<svg xmlns="http://www.w3.org/2000/svg" xmlns:xlink="http://www.w3.org/1999/xlink" xmlns:svgjs="http://svgjs.com/svgjs" version="1.1" width="512" height="512" x="0" y="0" viewBox="0 0 512 512" style="enable-background:new 0 0 512 512" xml:space="preserve"><g><path xmlns="http://www.w3.org/2000/svg" d="m391 136c-37.495 0-68-30.505-68-68s30.505-68 68-68 68 30.505 68 68-30.505 68-68 68zm0-96c-15.439 0-28 12.561-28 28s12.561 28 28 28 28-12.561 28-28-12.561-28-28-28zm-272 196c35.841 0 65-29.159 65-65s-29.159-65-65-65-65 29.159-65 65 29.159 65 65 65zm0-90c13.785 0 25 11.215 25 25s-11.215 25-25 25-25-11.215-25-25 11.215-25 25-25zm368 109.644v84.356c0 4.689-1.476 9.021-4.48 12.616-1.271 1.644-31.094 41.116-31.539 114.289-.156 25.708-21.238 45.095-49.038 45.095h-23.59c-24.885 0-45.249-20.316-45.394-45.288-.352-60.349-20.184-97.117-28.695-110.123-6.048-9.243-3.458-21.639 5.785-27.687 9.244-6.046 21.638-3.458 27.687 5.785 10.453 15.975 34.809 60.795 35.222 131.791.018 2.993 2.488 5.521 5.395 5.521h23.59c4.483 0 9.017-1.651 9.04-5.338.438-72.164 25.492-117.274 36.018-133.064v-77.954c-.001-26.821-21.823-48.643-48.645-48.643h-17.963c-25.017 0-48.036 13.623-60.076 35.551l-58.785 107.074c-2.925 5.328-8.114 9.036-14.101 10.079-5.987 1.042-12.124-.694-16.677-4.72l-42.715-37.763c-13.292-11.75-30.382-18.221-48.122-18.221h-26.917c-26.467 0-48 21.533-48 48v36.26c12.38 12.537 35.249 41.339 36.004 83.601.047 2.642 2.73 5.139 5.521 5.139h26.948c2.791 0 5.474-2.498 5.521-5.139 1.016-56.807 41.987-89.296 43.73-90.652l.011.015c3.391-2.638 7.639-4.224 12.265-4.224 11.046 0 20 8.954 20 20 0 6.419-3.036 12.117-7.737 15.776l.011.015.109-.086c-1.132.906-27.728 22.62-28.395 59.871-.437 24.495-20.855 44.424-45.514 44.424h-26.948c-24.659 0-45.077-19.929-45.515-44.424-.657-36.734-26.531-58.36-28.333-59.821-4.976-3.78-7.678-9.502-7.678-15.755v-45c0-48.523 39.477-88 88-88h26.917c27.507 0 54.006 10.034 74.615 28.253l23.975 21.195 46.748-85.147c19.065-34.728 55.52-56.301 95.138-56.301h17.963c48.878 0 88.644 39.766 88.644 88.644z" fill="#3c3c3c" data-original="#000000"/></g></svg>
