<?xml version="1.0"?>
<svg xmlns="http://www.w3.org/2000/svg" xmlns:xlink="http://www.w3.org/1999/xlink" xmlns:svgjs="http://svgjs.com/svgjs" version="1.1" width="512" height="512" x="0" y="0" viewBox="0 0 384.509 384.509" style="enable-background:new 0 0 512 512" xml:space="preserve" class=""><g>
<g xmlns="http://www.w3.org/2000/svg">
	<g>
		<path d="M375.855,256.545L215.127,95.818c-23.491-23.491-55.637-37.091-89.018-37.091c-33.381,0-65.528,13.6-89.018,37.091    c-49.455,49.455-49.455,128.582,0,178.036c49.455,49.455,128.582,49.455,178.036,1.237c14.836-14.836,42.036-14.836,56.873,0    l43.273,43.273c4.945,4.945,11.127,7.418,17.309,7.418s12.364-2.473,17.309-7.418l27.2-27.2    c4.945-4.945,7.418-11.127,7.418-17.309C384.509,267.673,380.8,260.255,375.855,256.545z M332.581,299.818l-43.272-43.273    C276.945,244.182,260.873,238,243.563,238c-17.309,0-33.382,6.182-45.746,18.546c-39.564,39.564-103.854,39.564-143.418,0    s-39.564-103.855,0-143.418c18.546-18.546,44.509-29.673,71.709-29.673c27.2,0,51.928,11.127,71.71,29.673l160.727,159.491    L332.581,299.818z" fill="#3c3c3c" data-original="#000000"/>
	</g>
</g>
<g xmlns="http://www.w3.org/2000/svg">
	<g>
		<path d="M180.509,129.2c-14.836-13.6-33.382-22.255-54.4-22.255c-21.018,0-39.564,8.654-54.4,22.255    c-29.673,29.673-29.673,79.127,0,108.8c14.836,14.836,34.618,22.255,54.4,22.255c21.018,0,39.564-8.655,54.4-22.255    c14.836-14.836,22.255-34.618,22.255-54.4S194.109,144.036,180.509,129.2z M163.2,221.927    c-9.891,9.891-23.491,14.836-37.091,14.836c-13.6,0-27.2-4.945-37.091-14.836c-21.018-21.018-21.018-54.4,0-74.182    c9.891-9.891,23.491-14.836,37.091-14.836c13.6,0,27.2,4.945,37.091,14.836c9.891,9.891,14.836,23.491,14.836,37.091    C178.036,198.437,173.091,212.036,163.2,221.927z" fill="#3c3c3c" data-original="#000000"/>
	</g>
</g>
<g xmlns="http://www.w3.org/2000/svg">
</g>
<g xmlns="http://www.w3.org/2000/svg">
</g>
<g xmlns="http://www.w3.org/2000/svg">
</g>
<g xmlns="http://www.w3.org/2000/svg">
</g>
<g xmlns="http://www.w3.org/2000/svg">
</g>
<g xmlns="http://www.w3.org/2000/svg">
</g>
<g xmlns="http://www.w3.org/2000/svg">
</g>
<g xmlns="http://www.w3.org/2000/svg">
</g>
<g xmlns="http://www.w3.org/2000/svg">
</g>
<g xmlns="http://www.w3.org/2000/svg">
</g>
<g xmlns="http://www.w3.org/2000/svg">
</g>
<g xmlns="http://www.w3.org/2000/svg">
</g>
<g xmlns="http://www.w3.org/2000/svg">
</g>
<g xmlns="http://www.w3.org/2000/svg">
</g>
<g xmlns="http://www.w3.org/2000/svg">
</g>
</g></svg>
