<svg width="17" height="16" viewBox="0 0 17 16" fill="none" xmlns="http://www.w3.org/2000/svg">
<path d="M15.0372 6.69425H14.5002V6.66659H8.50016V9.33325H12.2678C11.7182 10.8856 10.2412 11.9999 8.50016 11.9999C6.29116 11.9999 4.50016 10.2089 4.50016 7.99992C4.50016 5.79092 6.29116 3.99992 8.50016 3.99992C9.51983 3.99992 10.4475 4.38459 11.1538 5.01292L13.0395 3.12725C11.8488 2.01759 10.2562 1.33325 8.50016 1.33325C4.8185 1.33325 1.8335 4.31825 1.8335 7.99992C1.8335 11.6816 4.8185 14.6666 8.50016 14.6666C12.1818 14.6666 15.1668 11.6816 15.1668 7.99992C15.1668 7.55292 15.1208 7.11659 15.0372 6.69425Z" fill="#FFC107"/>
<path d="M2.60205 4.89692L4.79238 6.50325C5.38505 5.03592 6.82038 3.99992 8.50005 3.99992C9.51972 3.99992 10.4474 4.38458 11.1537 5.01292L13.0394 3.12725C11.8487 2.01759 10.2561 1.33325 8.50005 1.33325C5.93938 1.33325 3.71872 2.77892 2.60205 4.89692Z" fill="#FF3D00"/>
<path d="M8.49994 14.6667C10.2219 14.6667 11.7866 14.0077 12.9696 12.936L10.9063 11.19C10.2145 11.7161 9.36909 12.0007 8.49994 12C6.76594 12 5.29361 10.8943 4.73894 9.35132L2.56494 11.0263C3.66827 13.1853 5.90894 14.6667 8.49994 14.6667Z" fill="#4CAF50"/>
<path d="M15.037 6.69441H14.5V6.66675H8.5V9.33341H12.2677C12.0047 10.0722 11.5311 10.7178 10.9053 11.1904L10.9063 11.1897L12.9697 12.9357C12.8237 13.0684 15.1667 11.3334 15.1667 8.00008C15.1667 7.55308 15.1207 7.11675 15.037 6.69441Z" fill="#1976D2"/>
</svg>
