<svg width="22" height="21" viewBox="0 0 22 21" fill="none" xmlns="http://www.w3.org/2000/svg">
<path fill-rule="evenodd" clip-rule="evenodd" d="M1.81047 11.1994C0.672965 10.0634 0.0341797 8.52793 0.0341797 6.92704C0.0341797 5.31727 0.679688 3.77297 1.82952 2.63471C2.97935 1.49645 4.53936 0.857422 6.16549 0.857422C7.79161 0.857422 9.35162 1.49645 10.5015 2.63471L10.9206 3.04963L11.3397 2.63471C12.4896 1.49645 14.0484 0.857422 15.6746 0.857422C17.3018 0.857422 18.8607 1.49645 20.0105 2.63471C21.1604 3.77297 21.807 5.31727 21.807 6.92704C21.807 8.52793 21.1682 10.0634 20.0296 11.1994L11.7118 19.9183C11.5067 20.1335 11.2198 20.2556 10.9206 20.2556C10.6214 20.2556 10.3345 20.1335 10.1294 19.9183L1.81047 11.1994ZM10.9206 17.6085L18.4494 9.71722L18.4718 9.69504C19.2126 8.9606 19.6295 7.96545 19.6295 6.92704C19.6295 5.88862 19.2126 4.89348 18.4718 4.15905C17.7299 3.42461 16.7235 3.01191 15.6746 3.01191C14.6267 3.01191 13.6203 3.42461 12.8784 4.15905L11.6905 5.33614C11.2647 5.75661 10.5754 5.75661 10.1507 5.33614L8.96161 4.15905C8.22083 3.42461 7.21446 3.01191 6.16549 3.01191C5.11652 3.01191 4.11126 3.42461 3.36936 4.15905C2.62746 4.89348 2.21168 5.88862 2.21168 6.92704C2.21168 7.96545 2.62746 8.9606 3.36936 9.69504C3.37721 9.7028 3.38393 9.70945 3.39065 9.71722L10.9206 17.6085Z" fill="white"/>
</svg>
