<svg width="27" height="46" viewBox="0 0 27 46" fill="none" xmlns="http://www.w3.org/2000/svg">
<path d="M14.5 20.25C8.82505 18.775 7.00005 17.25 7.00005 14.875C7.00005 12.15 9.52505 10.25 13.75 10.25C18.2 10.25 19.85 12.375 20 15.5H25.525C25.35 11.2 22.725 7.25 17.5 5.975V0.5H10V5.9C5.15005 6.95 1.25005 10.1 1.25005 14.925C1.25005 20.7 6.02505 23.575 13 25.25C19.25 26.75 20.5 28.95 20.5 31.275C20.5 33 19.275 35.75 13.75 35.75C8.60005 35.75 6.57505 33.45 6.30005 30.5H0.800049C1.10005 35.975 5.20005 39.05 10 40.075V45.5H17.5V40.125C22.375 39.2 26.25 36.375 26.25 31.25C26.25 24.15 20.175 21.725 14.5 20.25Z" fill="#ED1D25"/>
</svg>
