<svg width="17" height="17" viewBox="0 0 17 17" fill="none" xmlns="http://www.w3.org/2000/svg">
<path d="M8.49996 2.25C9.64579 2.25 10.5833 3.1875 10.5833 4.33333C10.5833 5.47917 9.64579 6.41667 8.49996 6.41667C7.35413 6.41667 6.41663 5.47917 6.41663 4.33333C6.41663 3.1875 7.35413 2.25 8.49996 2.25ZM8.49996 12.6667C11.3125 12.6667 14.5416 14.0104 14.75 14.75H2.24996C2.48954 14 5.69788 12.6667 8.49996 12.6667ZM8.49996 0.166668C6.19788 0.166668 4.33329 2.03125 4.33329 4.33333C4.33329 6.63542 6.19788 8.5 8.49996 8.5C10.802 8.5 12.6666 6.63542 12.6666 4.33333C12.6666 2.03125 10.802 0.166668 8.49996 0.166668ZM8.49996 10.5833C5.71871 10.5833 0.166626 11.9792 0.166626 14.75V16.8333H16.8333V14.75C16.8333 11.9792 11.2812 10.5833 8.49996 10.5833Z" fill="#1D1D1D"/>
</svg>
