<svg width="25" height="25" viewBox="0 0 25 25" fill="none" xmlns="http://www.w3.org/2000/svg">
<path d="M12.5 3.74998C14.1042 3.74998 15.4167 5.06248 15.4167 6.66665C15.4167 8.27081 14.1042 9.58331 12.5 9.58331C10.8958 9.58331 9.58334 8.27081 9.58334 6.66665C9.58334 5.06248 10.8958 3.74998 12.5 3.74998ZM12.5 18.3333C16.4375 18.3333 20.9583 20.2146 21.25 21.25H3.75001C4.08543 20.2 8.57709 18.3333 12.5 18.3333ZM12.5 0.833313C9.27709 0.833313 6.66668 3.44373 6.66668 6.66665C6.66668 9.88956 9.27709 12.5 12.5 12.5C15.7229 12.5 18.3333 9.88956 18.3333 6.66665C18.3333 3.44373 15.7229 0.833313 12.5 0.833313ZM12.5 15.4166C8.60626 15.4166 0.833344 17.3708 0.833344 21.25V24.1666H24.1667V21.25C24.1667 17.3708 16.3938 15.4166 12.5 15.4166Z" fill="#1D1D1D"/>
</svg>
