<svg width="25" height="25" viewBox="0 0 25 25" fill="none" xmlns="http://www.w3.org/2000/svg">
<path d="M10.4168 17.1874L16.6668 12.4999L10.4168 7.81242V17.1874ZM12.5002 2.08325C6.75016 2.08325 2.0835 6.74992 2.0835 12.4999C2.0835 18.2499 6.75016 22.9166 12.5002 22.9166C18.2502 22.9166 22.9168 18.2499 22.9168 12.4999C22.9168 6.74992 18.2502 2.08325 12.5002 2.08325ZM12.5002 20.8333C7.90641 20.8333 4.16683 17.0937 4.16683 12.4999C4.16683 7.90617 7.90641 4.16659 12.5002 4.16659C17.0939 4.16659 20.8335 7.90617 20.8335 12.4999C20.8335 17.0937 17.0939 20.8333 12.5002 20.8333Z" fill="white"/>
</svg>
