<svg width="19" height="19" viewBox="0 0 19 19" fill="none" xmlns="http://www.w3.org/2000/svg">
<path fill-rule="evenodd" clip-rule="evenodd" d="M12.3229 11.5833H13.1458L18.3438 16.7917L16.7917 18.3437L11.5833 13.1458V12.3229L11.3021 12.0312C10.0771 13.0874 8.51323 13.6678 6.89584 13.6667C5.55669 13.6667 4.24762 13.2696 3.13416 12.5256C2.02071 11.7816 1.15287 10.7241 0.640402 9.48692C0.127934 8.24971 -0.00615139 6.88832 0.255103 5.57491C0.516357 4.26149 1.16122 3.05505 2.10813 2.10813C3.05505 1.16121 4.2615 0.516353 5.57491 0.255099C6.88832 -0.0061552 8.24971 0.12793 9.48692 0.640398C10.7241 1.15287 11.7816 2.0207 12.5256 3.13416C13.2696 4.24762 13.6667 5.55669 13.6667 6.89583C13.6667 8.57292 13.0521 10.1146 12.0313 11.3021L12.3229 11.5833V11.5833ZM2.20834 6.89583C2.20834 9.48958 4.30209 11.5833 6.89584 11.5833C9.48959 11.5833 11.5833 9.48958 11.5833 6.89583C11.5833 4.30208 9.48959 2.20833 6.89584 2.20833C4.30209 2.20833 2.20834 4.30208 2.20834 6.89583Z" fill="#1D1D1D"/>
</svg>
