<svg width="21" height="21" viewBox="0 0 21 21" fill="none" xmlns="http://www.w3.org/2000/svg">
<path d="M15.2355 11.5417C16.0167 11.5417 16.7042 11.1146 17.0584 10.4688L20.7876 3.70833C20.8753 3.55044 20.9204 3.37236 20.9182 3.19172C20.916 3.01108 20.8668 2.83414 20.7752 2.6784C20.6837 2.52266 20.553 2.39352 20.3962 2.30377C20.2395 2.21401 20.062 2.16676 19.8813 2.16667H4.46464L3.48547 0.0833321H0.0792236V2.16667H2.16256L5.91256 10.0729L4.50631 12.6146C3.74589 14.0104 4.74589 15.7083 6.32922 15.7083H18.8292V13.625H6.32922L7.47506 11.5417H15.2355ZM5.45422 4.25H18.1105L15.2355 9.45833H7.92297L5.45422 4.25ZM6.32922 16.75C5.18339 16.75 4.25631 17.6875 4.25631 18.8333C4.25631 19.9792 5.18339 20.9167 6.32922 20.9167C7.47506 20.9167 8.41256 19.9792 8.41256 18.8333C8.41256 17.6875 7.47506 16.75 6.32922 16.75ZM16.7459 16.75C15.6001 16.75 14.673 17.6875 14.673 18.8333C14.673 19.9792 15.6001 20.9167 16.7459 20.9167C17.8917 20.9167 18.8292 19.9792 18.8292 18.8333C18.8292 17.6875 17.8917 16.75 16.7459 16.75Z" fill="#1D1D1D"/>
</svg>
