<svg width="12" height="12" viewBox="0 0 12 12" fill="none" xmlns="http://www.w3.org/2000/svg">
<path d="M6 0C2.688 0 0 2.688 0 6C0 9.312 2.688 12 6 12C9.312 12 12 9.312 12 6C12 2.688 9.312 0 6 0ZM10.476 4.272L8.808 4.962C8.65772 4.55767 8.42171 4.19066 8.11618 3.88617C7.81065 3.58167 7.44284 3.34691 7.038 3.198L7.728 1.53C8.988 2.01 9.99 3.012 10.476 4.272ZM6 7.8C5.004 7.8 4.2 6.996 4.2 6C4.2 5.004 5.004 4.2 6 4.2C6.996 4.2 7.8 5.004 7.8 6C7.8 6.996 6.996 7.8 6 7.8ZM4.278 1.524L4.98 3.192C4.57039 3.34127 4.19823 3.57803 3.88944 3.88578C3.58065 4.19354 3.34265 4.56489 3.192 4.974L1.524 4.278C1.76459 3.65169 2.13406 3.0829 2.60848 2.60848C3.0829 2.13406 3.65169 1.76459 4.278 1.524ZM1.524 7.722L3.192 7.032C3.3416 7.44004 3.57862 7.81043 3.88644 8.11722C4.19427 8.42401 4.56546 8.65978 4.974 8.808L4.272 10.476C3.64703 10.2343 3.07961 9.86439 2.60631 9.39005C2.13301 8.91572 1.76432 8.3475 1.524 7.722ZM7.728 10.476L7.038 8.808C7.44473 8.65731 7.81375 8.41983 8.11942 8.11209C8.42508 7.80436 8.66006 7.43374 8.808 7.026L10.476 7.728C10.2346 8.35218 9.86549 8.91905 9.39227 9.39227C8.91905 9.86549 8.35218 10.2346 7.728 10.476Z" fill="#1D1D1D"/>
</svg>
