<svg width="42" height="19" viewBox="0 0 42 19" fill="none" xmlns="http://www.w3.org/2000/svg">
<path d="M6.86222 10.9583C8.74933 10.9583 10.2933 9.64583 10.2933 8.04167C10.2933 6.4375 8.74933 5.125 6.86222 5.125C4.97511 5.125 3.43111 6.4375 3.43111 8.04167C3.43111 9.64583 4.97511 10.9583 6.86222 10.9583ZM8.8008 12.5625C8.16604 12.475 7.53129 12.4167 6.86222 12.4167C5.16382 12.4167 3.5512 12.7229 2.09298 13.2625C1.47145 13.4883 0.941709 13.8645 0.569595 14.3441C0.197482 14.8238 -0.000589612 15.3858 1.31839e-06 15.9604V18.25H7.72V15.9021C7.72 14.6917 8.11458 13.5542 8.8008 12.5625ZM34.3111 10.9583C36.1982 10.9583 37.7422 9.64583 37.7422 8.04167C37.7422 6.4375 36.1982 5.125 34.3111 5.125C32.424 5.125 30.88 6.4375 30.88 8.04167C30.88 9.64583 32.424 10.9583 34.3111 10.9583ZM41.1733 15.9604C41.1733 14.7792 40.3498 13.7292 39.0803 13.2625C37.576 12.7045 35.9524 12.4166 34.3111 12.4167C33.642 12.4167 33.0073 12.475 32.3725 12.5625C33.0587 13.5542 33.4533 14.6917 33.4533 15.9021V18.25H41.1733V15.9604ZM27.8606 11.9062C25.8534 11.1479 23.383 10.5938 20.5867 10.5938C17.7903 10.5938 15.3199 11.1625 13.3127 11.9062C12.4087 12.2527 11.6423 12.8145 11.1064 13.5238C10.5704 14.233 10.288 15.0592 10.2933 15.9021V18.25H30.88V15.9021C30.88 14.1812 29.7134 12.6062 27.8606 11.9062ZM13.8445 15.3333C13.9989 14.9979 14.0675 14.7646 15.4057 14.3271C17.0573 13.7816 18.8148 13.5046 20.5867 13.5104C22.3537 13.5104 24.1035 13.7729 25.7676 14.3271C27.0886 14.7646 27.1572 14.9979 27.3288 15.3333H13.8445ZM20.5867 3.66667C21.5302 3.66667 22.3022 4.32292 22.3022 5.125C22.3022 5.92708 21.5302 6.58333 20.5867 6.58333C19.6431 6.58333 18.8711 5.92708 18.8711 5.125C18.8711 4.32292 19.6431 3.66667 20.5867 3.66667ZM20.5867 0.75C17.7388 0.75 15.44 2.70417 15.44 5.125C15.44 7.54583 17.7388 9.5 20.5867 9.5C23.4345 9.5 25.7333 7.54583 25.7333 5.125C25.7333 2.70417 23.4345 0.75 20.5867 0.75Z" fill="#1D1D1D"/>
</svg>
