<svg width="25" height="25" viewBox="0 0 25 25" fill="none" xmlns="http://www.w3.org/2000/svg">
<path d="M10.4167 17.1875L16.6667 12.5L10.4167 7.81251V17.1875ZM12.5 2.08334C6.75001 2.08334 2.08334 6.75001 2.08334 12.5C2.08334 18.25 6.75001 22.9167 12.5 22.9167C18.25 22.9167 22.9167 18.25 22.9167 12.5C22.9167 6.75001 18.25 2.08334 12.5 2.08334ZM12.5 20.8333C7.90626 20.8333 4.16668 17.0938 4.16668 12.5C4.16668 7.90626 7.90626 4.16668 12.5 4.16668C17.0938 4.16668 20.8333 7.90626 20.8333 12.5C20.8333 17.0938 17.0938 20.8333 12.5 20.8333Z" fill="#1D1D1D"/>
</svg>
