<svg width="35" height="35" viewBox="0 0 35 35" fill="none" xmlns="http://www.w3.org/2000/svg">
<g clip-path="url(#clip0_69_335)">
<path d="M32.9603 2.26611H22.2002C21.2233 2.26611 20.4305 3.06034 20.4305 4.03894V14.8177C20.4305 15.7964 21.2233 16.5906 22.2002 16.5906H27.3502C27.283 19.4129 26.6281 21.6715 25.3893 23.3699C24.4124 24.7101 22.9329 25.8199 20.9543 26.6957C20.0447 27.0963 19.6518 28.1742 20.0765 29.0749L21.3507 31.7696C21.7613 32.6347 22.7772 33.0141 23.655 32.6347C25.9981 31.6206 27.9767 30.3371 29.5907 28.777C31.5587 26.873 32.9072 24.7243 33.6364 22.3274C34.3656 19.9306 34.7301 16.6615 34.7301 12.5131V4.03894C34.7301 3.06038 33.9372 2.26611 32.9603 2.26611Z" fill="white"/>
<path d="M3.97176 32.6276C6.2866 31.6171 8.25457 30.3336 9.87921 28.777C11.8649 26.873 13.2205 24.7314 13.9496 22.3523C14.6788 19.9731 15.0433 16.6934 15.0433 12.5131V4.03894C15.0433 3.06034 14.2505 2.26611 13.2736 2.26611H2.51345C1.53654 2.26611 0.743692 3.06034 0.743692 4.03894V14.8177C0.743692 15.7964 1.53654 16.5906 2.51345 16.5906H7.66344C7.59619 19.4129 6.94138 21.6715 5.70255 23.3699C4.72564 24.7101 3.24613 25.8199 1.26754 26.6957C0.357886 27.0963 -0.0350001 28.1742 0.389741 29.0749L1.66043 31.7625C2.07104 32.6276 3.09396 33.0105 3.97176 32.6276Z" fill="white"/>
</g>
<defs>
<clipPath id="clip0_69_335">
<rect width="34.5115" height="34.5714" fill="white" transform="translate(0.218628 0.238281)"/>
</clipPath>
</defs>
</svg>
