<svg width="25" height="25" viewBox="0 0 25 25" fill="none" xmlns="http://www.w3.org/2000/svg">
<path d="M19.0159 4.14844H17.7138V3.36719C17.7138 3.15999 17.6315 2.96127 17.485 2.81476C17.3385 2.66825 17.1398 2.58594 16.9326 2.58594C16.7254 2.58594 16.5267 2.66825 16.3801 2.81476C16.2336 2.96127 16.1513 3.15999 16.1513 3.36719V4.14844H9.38048V3.36719C9.38048 3.15999 9.29817 2.96127 9.15166 2.81476C9.00514 2.66825 8.80643 2.58594 8.59923 2.58594C8.39203 2.58594 8.19332 2.66825 8.0468 2.81476C7.90029 2.96127 7.81798 3.15999 7.81798 3.36719V4.14844H6.5159C5.98813 4.08727 5.45336 4.14623 4.95159 4.3209C4.44982 4.49558 3.99404 4.78146 3.61836 5.15715C3.24267 5.53284 2.95679 5.98861 2.78211 6.49038C2.60744 6.99215 2.54848 7.52692 2.60965 8.05469V18.9922C2.54848 19.52 2.60744 20.0547 2.78211 20.5565C2.95679 21.0583 3.24267 21.514 3.61836 21.8897C3.99404 22.2654 4.44982 22.5513 4.95159 22.726C5.45336 22.9007 5.98813 22.9596 6.5159 22.8984H19.0159C19.5437 22.9596 20.0784 22.9007 20.5802 22.726C21.082 22.5513 21.5378 22.2654 21.9134 21.8897C22.2891 21.514 22.575 21.0583 22.7497 20.5565C22.9244 20.0547 22.9833 19.52 22.9221 18.9922V8.05469C22.9833 7.52692 22.9244 6.99215 22.7497 6.49038C22.575 5.98861 22.2891 5.53284 21.9134 5.15715C21.5378 4.78146 21.082 4.49558 20.5802 4.3209C20.0784 4.14623 19.5437 4.08727 19.0159 4.14844ZM6.5159 5.71094H7.81798V6.49219C7.81798 6.69939 7.90029 6.8981 8.0468 7.04461C8.19332 7.19113 8.39203 7.27344 8.59923 7.27344C8.80643 7.27344 9.00514 7.19113 9.15166 7.04461C9.29817 6.8981 9.38048 6.69939 9.38048 6.49219V5.71094H16.1513V6.49219C16.1513 6.69939 16.2336 6.8981 16.3801 7.04461C16.5267 7.19113 16.7254 7.27344 16.9326 7.27344C17.1398 7.27344 17.3385 7.19113 17.485 7.04461C17.6315 6.8981 17.7138 6.69939 17.7138 6.49219V5.71094H19.0159C20.6586 5.71094 21.3596 6.41198 21.3596 8.05469V8.83594H4.17215V8.05469C4.17215 6.41198 4.87319 5.71094 6.5159 5.71094ZM19.0159 21.3359H6.5159C4.87319 21.3359 4.17215 20.6349 4.17215 18.9922V10.3984H21.3596V18.9922C21.3596 20.6349 20.6586 21.3359 19.0159 21.3359ZM15.9221 13.5755C15.9947 13.6481 16.0523 13.7342 16.0916 13.829C16.1309 13.9239 16.1511 14.0255 16.1511 14.1281C16.1511 14.2308 16.1309 14.3324 16.0916 14.4272C16.0523 14.522 15.9947 14.6082 15.9221 14.6807L12.4534 18.1589C12.381 18.2315 12.295 18.2892 12.2002 18.3286C12.1055 18.3679 12.0039 18.3882 11.9013 18.3882C11.7987 18.3882 11.6971 18.3679 11.6024 18.3286C11.5077 18.2892 11.4216 18.2315 11.3492 18.1589L9.60965 16.4193C9.47165 16.2712 9.39652 16.0753 9.40009 15.8729C9.40366 15.6705 9.48565 15.4774 9.62879 15.3342C9.77193 15.1911 9.96504 15.1091 10.1674 15.1055C10.3698 15.102 10.5657 15.1771 10.7138 15.3151L11.8982 16.4984L14.8149 13.5818C14.887 13.5083 14.9729 13.4499 15.0677 13.4098C15.1625 13.3697 15.2643 13.3487 15.3672 13.3482C15.4701 13.3476 15.5721 13.3674 15.6674 13.4064C15.7626 13.4454 15.8492 13.5029 15.9221 13.5755Z" fill="white"/>
</svg>
