<svg width="25" height="25" viewBox="0 0 25 25" fill="none" xmlns="http://www.w3.org/2000/svg">
<g clip-path="url(#clip0_948_63)">
<path d="M0.732422 25.0005H8.20689C8.61138 25.0005 8.93931 24.6726 8.93931 24.2681V23.4521C8.93931 21.7588 7.99287 20.2825 6.60127 19.5243C7.09551 18.9996 7.39937 18.2936 7.39937 17.5176C7.39937 15.9021 6.08511 14.5879 4.46968 14.5879C2.85425 14.5879 1.53999 15.9021 1.53999 17.5176C1.53999 18.2936 1.84385 18.9996 2.33809 19.5243C0.946436 20.2825 0 21.7588 0 23.4521V24.2681C0 24.6726 0.32793 25.0005 0.732422 25.0005ZM3.00483 17.5176C3.00483 16.7099 3.66196 16.0527 4.46968 16.0527C5.27739 16.0527 5.93452 16.7099 5.93452 17.5176C5.93452 18.3253 5.27739 18.9824 4.46968 18.9824C3.66196 18.9824 3.00483 18.3253 3.00483 17.5176ZM4.46968 20.4473C6.03887 20.4473 7.47446 21.6774 7.47446 23.5356H1.46484C1.46484 21.6871 2.89209 20.4473 4.46968 20.4473Z" fill="white"/>
<path d="M22.662 19.5243C23.1562 18.9996 23.46 18.2936 23.46 17.5176C23.46 15.9021 22.1458 14.5879 20.5304 14.5879C18.9149 14.5879 17.6007 15.9021 17.6007 17.5176C17.6007 18.2936 17.9045 18.9996 18.3988 19.5243C17.0072 20.2825 16.0607 21.7588 16.0607 23.4521V24.2681C16.0607 24.6726 16.3887 25.0005 16.7932 25.0005H24.2676C24.6721 25.0005 25 24.6726 25 24.2681V23.4521C25 21.7588 24.0536 20.2825 22.662 19.5243ZM19.0655 17.5176C19.0655 16.7099 19.7226 16.0527 20.5303 16.0527C21.338 16.0527 21.9952 16.7099 21.9952 17.5176C21.9952 18.3253 21.338 18.9824 20.5303 18.9824C19.7226 18.9824 19.0655 18.3253 19.0655 17.5176ZM23.5351 23.5356H17.5255C17.5255 21.6871 18.9528 20.4473 20.5303 20.4473C22.0995 20.4473 23.5351 21.6772 23.5351 23.5356Z" fill="white"/>
<path d="M16.9697 9.68018V8.86416C16.9697 7.17095 16.0232 5.69463 14.6316 4.93638C15.1258 4.41167 15.4297 3.70571 15.4297 2.92969C15.4297 1.31426 14.1154 0 12.5 0C10.8846 0 9.57031 1.31426 9.57031 2.92969C9.57031 3.70571 9.87416 4.41167 10.3684 4.93638C8.9768 5.69463 8.03036 7.17095 8.03036 8.86416V9.68018C8.03036 10.0847 8.35829 10.4126 8.76279 10.4126H16.2373C16.6417 10.4126 16.9697 10.0847 16.9697 9.68018ZM11.0352 2.92969C11.0352 2.12197 11.6923 1.46484 12.5 1.46484C13.3077 1.46484 13.9648 2.12197 13.9648 2.92969C13.9648 3.7374 13.3077 4.39453 12.5 4.39453C11.6923 4.39453 11.0352 3.7374 11.0352 2.92969ZM15.5048 8.94775H9.49516C9.49516 7.09917 10.9224 5.85938 12.5 5.85938C14.0691 5.85938 15.5048 7.08936 15.5048 8.94775Z" fill="white"/>
<path d="M15.4589 18.5085C14.5021 18.8228 13.493 18.9822 12.46 18.9822C11.4632 18.9822 10.4871 18.8333 9.55879 18.5397C9.173 18.4179 8.76153 18.6315 8.6396 19.0171C8.51763 19.4028 8.7314 19.8143 9.11705 19.9363C10.1883 20.2751 11.3131 20.447 12.46 20.447C13.6486 20.447 14.8114 20.263 15.9161 19.9001C16.3004 19.7739 16.5096 19.36 16.3834 18.9757C16.2571 18.5914 15.8433 18.3822 15.4589 18.5085Z" fill="white"/>
<path d="M5.74853 6.07031C4.93965 6.85005 4.252 7.75649 3.70468 8.76455C3.1375 9.80923 2.74433 10.9189 2.53613 12.0628C2.45454 12.5111 2.79853 12.9265 3.25757 12.9265C3.60464 12.9265 3.91294 12.6787 3.97729 12.3251C4.15766 11.3342 4.49907 10.3714 4.99199 9.46352C5.46772 8.5874 6.06426 7.80058 6.76513 7.125C7.05635 6.84428 7.06489 6.38061 6.78418 6.08935C6.50342 5.79814 6.03979 5.7896 5.74853 6.07031Z" fill="white"/>
<path d="M19.2515 6.06935C18.9602 5.78859 18.4965 5.79718 18.2158 6.08839C17.9351 6.37965 17.9436 6.84333 18.2349 7.12404C18.9358 7.79963 19.5323 8.58639 20.008 9.46256C20.501 10.3705 20.8423 11.3333 21.0227 12.3241C21.0951 12.7216 21.4759 12.986 21.8744 12.9135C22.2724 12.8411 22.5363 12.4597 22.4639 12.0618C22.2557 10.9179 21.8625 9.80827 21.2953 8.76359C20.748 7.75553 20.0604 6.84904 19.2515 6.06935Z" fill="white"/>
</g>
<defs>
<clipPath id="clip0_948_63">
<rect width="25" height="25" fill="white"/>
</clipPath>
</defs>
</svg>
