<svg width="45" height="44" viewBox="0 0 45 44" fill="none" xmlns="http://www.w3.org/2000/svg">
<g clip-path="url(#clip0_115921_6483)">
<path d="M38.0564 28.4438C35.6602 26.0477 32.8081 24.2738 29.6963 23.2C33.0291 20.9046 35.2188 17.0629 35.2188 12.7189C35.2188 5.70583 29.5131 0.000183105 22.5 0.000183105C15.4869 0.000183105 9.78125 5.70583 9.78125 12.7189C9.78125 17.0629 11.9709 20.9046 15.3038 23.2C12.192 24.2738 9.33988 26.0477 6.94368 28.4438C2.78843 32.5991 0.5 38.1238 0.5 44.0002H3.9375C3.9375 33.7648 12.2646 25.4377 22.5 25.4377C32.7354 25.4377 41.0625 33.7648 41.0625 44.0002H44.5C44.5 38.1238 42.2116 32.5991 38.0564 28.4438ZM22.5 22.0002C17.3823 22.0002 13.2188 17.8367 13.2188 12.7189C13.2188 7.60118 17.3823 3.43768 22.5 3.43768C27.6177 3.43768 31.7812 7.60118 31.7812 12.7189C31.7812 17.8367 27.6177 22.0002 22.5 22.0002Z" fill="#A6A6A6"/>
</g>
<defs>
<clipPath id="clip0_115921_6483">
<rect width="44" height="44" fill="white" transform="translate(0.5 0.000183105)"/>
</clipPath>
</defs>
</svg>
