<?xml version="1.0"?>
<svg xmlns="http://www.w3.org/2000/svg" xmlns:xlink="http://www.w3.org/1999/xlink" xmlns:svgjs="http://svgjs.com/svgjs" version="1.1" width="512px" height="512px" x="0" y="0" viewBox="0 0 16 16" style="enable-background:new 0 0 512 512" xml:space="preserve" class=""><g><g><path d="m6.5 15h-4c-.275 0-.5-.224-.5-.5v-13c0-.276.225-.5.5-.5h5.5v2.5c0 .827.673 1.5 1.5 1.5h2.5v.5c0 .276.224.5.5.5s.5-.224.5-.5v-.585c0-.4-.156-.777-.439-1.061l-3.415-3.415c-.279-.279-.666-.439-1.06-.439h-5.586c-.827 0-1.5.673-1.5 1.5v13c0 .827.673 1.5 1.5 1.5h4c.276 0 .5-.224.5-.5s-.224-.5-.5-.5zm4.793-11h-1.793c-.275 0-.5-.224-.5-.5v-1.793z" fill="#ffffff" data-original="#000000"/><path d="m10.5 7c-2.481 0-4.5 2.019-4.5 4.5s2.019 4.5 4.5 4.5 4.5-2.019 4.5-4.5-2.019-4.5-4.5-4.5zm0 8c-1.93 0-3.5-1.57-3.5-3.5s1.57-3.5 3.5-3.5 3.5 1.57 3.5 3.5-1.57 3.5-3.5 3.5z" fill="#ffffff" data-original="#000000"/><path d="m11.646 11.646-.646.647v-2.793c0-.276-.224-.5-.5-.5s-.5.224-.5.5v2.793l-.646-.646c-.195-.195-.512-.195-.707 0s-.195.512 0 .707l1.5 1.5c.097.097.225.146.353.146s.256-.049.354-.146l1.5-1.5c.195-.195.195-.512 0-.707s-.512-.196-.708-.001z" fill="#ffffff" data-original="#000000"/></g></g></svg>
