<?xml version="1.0"?>
<svg xmlns="http://www.w3.org/2000/svg" xmlns:xlink="http://www.w3.org/1999/xlink" xmlns:svgjs="http://svgjs.com/svgjs" version="1.1" width="512px" height="512px" x="0" y="0" viewBox="0 0 64 64" style="enable-background:new 0 0 512 512" xml:space="preserve"><g><path clip-rule="evenodd" d="m31.5 6c-12.9787 0-23.5 10.5213-23.5 23.5v4.752c-3.45045.8881-6 4.0203-6 7.748v4 4c0 4.4183 3.58172 8 8 8 4.4183 0 8-3.5817 8-8v-4-4c0-3.7277-2.5495-6.8599-6-7.748v-4.752c0-10.7696 8.7304-19.5 19.5-19.5s19.5 8.7304 19.5 19.5v4.752c-3.4505.8881-6 4.0203-6 7.748v4 4c0 1.4571.3896 2.8233 1.0703 4h-5.0703c-1.1046 0-2 .8954-2 2s.8954 2 2 2h12c4.4183 0 8-3.5817 8-8v-4-4c0-3.7277-2.5495-6.8599-6-7.748v-4.752c0-12.9787-10.5213-23.5-23.5-23.5zm21.5 48c2.2091 0 4-1.7909 4-4v-4-4c0-2.2091-1.7909-4-4-4s-4 1.7909-4 4v4 4c0 2.2091 1.7909 4 4 4zm-43-16c-2.20914 0-4 1.7909-4 4v4 4c0 2.2091 1.79086 4 4 4 2.2091 0 4-1.7909 4-4v-4-4c0-2.2091-1.7909-4-4-4z" fill="#ffffff" fill-rule="evenodd" data-original="#000000"/></g></svg>
