<svg xmlns="http://www.w3.org/2000/svg" width="15" height="20.454" viewBox="0 0 15 20.454">
  <g id="invoice" transform="translate(-245 -145)">
    <g id="SOLID" transform="translate(245 145)">
      <path id="Path_1" data-name="Path 1" d="M260,146.5a1.5,1.5,0,0,0-1.5-1.5h-12a1.5,1.5,0,0,0-1.5,1.5v17.127a1.5,1.5,0,0,0,2.057,1.393l1.983-.794a.136.136,0,0,1,.1,0l2.8,1.121a1.505,1.505,0,0,0,1.114,0l2.8-1.121a.136.136,0,0,1,.1,0l1.983.794A1.5,1.5,0,0,0,260,163.627Zm-10.909,14.864h6.818a.682.682,0,0,0,0-1.364h-6.818a.682.682,0,0,0,0,1.364Zm0-2.727h6.818a.682.682,0,0,0,0-1.364h-6.818a.682.682,0,0,0,0,1.364Zm2.727-9.539a1.5,1.5,0,0,0-1.364,1.494V151a1.5,1.5,0,0,0,1.5,1.5h1.091a.137.137,0,0,1,.136.136v.409a.137.137,0,0,1-.136.136h-1.909a.682.682,0,1,0,0,1.364h.682v.682a.682.682,0,0,0,1.364,0v-.688a1.5,1.5,0,0,0,1.364-1.494v-.409a1.5,1.5,0,0,0-1.5-1.5h-1.091a.137.137,0,0,1-.136-.136v-.409a.137.137,0,0,1,.136-.136h1.909a.682.682,0,0,0,0-1.364h-.682v-.682a.682.682,0,0,0-1.364,0Z" transform="translate(-245 -145)" fill="#fff" fill-rule="evenodd"/>
    </g>
  </g>
</svg>
